<svg width="828" height="509" viewBox="0 0 828 509" fill="none" xmlns="http://www.w3.org/2000/svg">
<g filter="url(#filter0_b_7116_11019)">
<g clip-path="url(#clip0_7116_11019)">
<path d="M0 30C0 13.4315 13.4315 0 30 0H798C814.569 0 828 13.4315 828 30V479C828 495.569 814.569 509 798 509H30C13.4315 509 0 495.569 0 479V30Z" fill="url(#paint0_linear_7116_11019)"/>
<g clip-path="url(#clip1_7116_11019)">
<path d="M525.033 391.122L591.33 239.972C591.479 239.633 591.156 239.278 590.805 239.394L436.005 290.264L366.172 439.975C366.015 440.312 366.333 440.675 366.687 440.564L525.033 391.122Z" fill="black" stroke="white" stroke-width="0.939664"/>
<g clip-path="url(#clip2_7116_11019)">
<path d="M507.719 303.223L501.753 327.149C501.375 328.667 500.238 330.369 498.762 331.59L475.732 350.843C474.267 352.073 472.685 352.649 471.602 352.346L454.52 347.693C453.437 347.39 452.988 346.279 453.367 344.761L459.332 320.835C459.711 319.317 460.848 317.615 462.327 316.38L485.371 297.122C486.836 295.892 488.418 295.316 489.501 295.618L506.583 300.272C507.652 300.579 508.101 301.691 507.719 303.223Z" fill="black"/>
<path d="M474.967 330.273L475.819 337.324C475.849 337.51 475.784 337.77 475.646 338.018L467.257 353.743L462.405 352.419L474.061 330.589C474.323 330.1 474.925 329.881 474.967 330.273Z" fill="#7B7B7B"/>
<path d="M472.653 318.701C472.918 318.197 473.521 317.978 473.577 318.365L474.428 325.416C474.455 325.616 474.393 325.862 474.255 326.11L460.5 351.872L455.648 350.549L472.653 318.701Z" fill="#7B7B7B"/>
<path d="M487.198 297.271C487.058 297.322 486.907 297.416 486.763 297.535L461.836 318.372C461.548 318.608 461.326 318.939 461.25 319.243L454.798 345.12C454.722 345.424 454.808 345.642 455.024 345.695L473.495 350.75C473.603 350.776 473.732 350.769 473.872 350.718C474.012 350.667 474.163 350.572 474.307 350.454L499.234 329.617C499.523 329.381 499.745 329.05 499.821 328.746L506.276 302.854C506.352 302.551 506.266 302.332 506.05 302.279L487.575 297.239C487.467 297.213 487.338 297.22 487.198 297.271ZM488.139 293.498C488.909 293.218 489.639 293.149 490.224 293.304L508.699 298.344C509.866 298.669 510.355 299.871 509.944 301.519L503.493 327.397C503.082 329.045 501.845 330.888 500.254 332.217L475.327 353.054C474.536 353.723 473.716 354.206 472.932 354.491C472.148 354.776 471.432 354.84 470.847 354.685L452.371 349.644C451.191 349.325 450.715 348.118 451.13 346.455L457.582 320.578C457.993 318.93 459.229 317.086 460.82 315.758L485.744 294.935C486.545 294.275 487.369 293.778 488.139 293.498Z" fill="white"/>
<path d="M489.219 341.435L488.623 336.526L483.761 341.424L486.616 343.605L489.219 341.435Z" fill="#213147"/>
<path d="M486.058 308.552L491.561 306.549C491.967 306.401 492.28 306.524 492.319 306.878L495.781 335.982L489.236 341.453L485.413 309.404C485.384 309.113 485.708 308.679 486.058 308.552Z" fill="white"/>
<path d="M476.447 312.056L481.949 310.054C482.355 309.906 482.669 310.029 482.708 310.382L486.657 343.608L480.112 349.079L475.816 312.904C475.773 312.617 476.111 312.179 476.447 312.056Z" fill="white"/>
</g>
<path d="M403.761 409.154L414.263 388.823L420.407 386.893L419.735 404.136L416.102 405.277L416.316 401.463L409.638 403.56L407.394 408.012L403.761 409.154ZM411.44 400.026L416.462 398.449L416.913 390.01L416.432 390.161L411.44 400.026ZM422.08 403.399L426.039 390.088L429.352 389.047L428.905 390.55L429.386 390.399C429.741 389.801 430.179 389.307 430.699 388.916C431.236 388.52 431.808 388.227 432.413 388.037L434.016 387.534L433.122 390.539L431.466 391.06C430.611 391.328 429.838 391.782 429.148 392.42C428.463 393.041 427.979 393.826 427.697 394.774L425.446 402.342L422.08 403.399ZM440.521 397.948C439.327 398.323 438.472 398.405 437.953 398.195C437.434 397.985 437.098 397.677 436.944 397.271L436.463 397.422L435.984 399.032L432.672 400.073L438.259 381.286L441.625 380.229L439.542 387.234L440.023 387.083C440.314 386.699 440.663 386.314 441.069 385.927C441.492 385.534 441.998 385.164 442.585 384.818C443.196 384.448 443.902 384.137 444.703 383.885C445.772 383.549 446.68 383.507 447.429 383.759C448.183 383.992 448.684 384.532 448.933 385.379C449.182 386.225 449.091 387.373 448.66 388.822L448.532 389.252C448.101 390.701 447.458 392.022 446.602 393.215C445.747 394.409 444.785 395.416 443.717 396.238C442.655 397.043 441.589 397.612 440.521 397.948ZM440.384 395.315C441.416 394.99 442.379 394.388 443.27 393.508C444.167 392.61 444.807 391.517 445.19 390.228L445.27 389.96C445.653 388.672 445.596 387.806 445.098 387.362C444.623 386.895 443.861 386.826 442.81 387.156C441.777 387.48 440.812 388.092 439.916 388.99C439.024 389.87 438.387 390.954 438.004 392.242L437.924 392.511C437.541 393.799 437.595 394.674 438.088 395.136C438.585 395.579 439.351 395.639 440.384 395.315ZM449.707 394.722L453.666 381.41L457.032 380.353L453.073 393.665L449.707 394.722ZM455.812 379.325C455.206 379.515 454.748 379.481 454.438 379.221C454.145 378.956 454.095 378.502 454.286 377.858C454.478 377.214 454.837 376.63 455.364 376.108C455.908 375.58 456.483 375.221 457.089 375.031C457.712 374.835 458.17 374.87 458.463 375.135C458.755 375.4 458.806 375.854 458.614 376.498C458.422 377.143 458.063 377.726 457.537 378.248C457.01 378.77 456.435 379.129 455.812 379.325ZM461.878 390.899C461.005 391.173 460.373 391.129 459.98 390.765C459.611 390.378 459.562 389.729 459.834 388.816L462.068 381.302L458.756 382.342L459.586 379.551L462.899 378.51L464.128 374.377L467.494 373.32L466.264 377.453L469.897 376.312L469.067 379.103L465.434 380.244L463.375 387.169C463.215 387.705 463.385 387.896 463.884 387.739L466.448 386.933L465.618 389.725L461.878 390.899ZM468.985 388.667L472.944 375.355L476.257 374.315L475.81 375.818L476.291 375.667C476.646 375.068 477.084 374.574 477.603 374.184C478.141 373.788 478.712 373.495 479.318 373.305L480.921 372.801L480.027 375.807L478.371 376.327C477.516 376.596 476.743 377.049 476.053 377.688C475.368 378.309 474.884 379.093 474.602 380.041L472.351 387.61L468.985 388.667ZM484.562 383.969C483.529 384.294 482.69 384.346 482.044 384.127C481.422 383.885 481.023 383.41 480.845 382.703C480.668 381.997 480.742 381.098 481.066 380.006L483.429 372.062L486.795 371.005L484.512 378.681C484.214 379.683 484.231 380.358 484.563 380.708C484.912 381.053 485.541 381.082 486.45 380.797C487.482 380.473 488.385 379.881 489.157 379.022C489.934 378.145 490.507 377.09 490.874 375.855L492.885 369.092L496.251 368.035L492.292 381.346L488.98 382.387L489.499 380.642L489.018 380.793C488.671 381.308 488.14 381.872 487.425 382.486C486.709 383.1 485.755 383.594 484.562 383.969ZM496.038 380.17L499.997 366.858L503.309 365.818L502.878 367.267L503.359 367.116C503.723 366.596 504.221 366.091 504.851 365.601C505.486 365.093 506.24 364.702 507.113 364.428C508.057 364.132 508.758 364.082 509.216 364.279C509.679 364.458 509.975 364.795 510.102 365.29L510.583 365.139C511.056 364.471 511.624 363.863 512.288 363.314C512.952 362.765 513.791 362.331 514.806 362.012C515.625 361.755 516.311 361.701 516.864 361.852C517.439 361.98 517.817 362.34 517.996 362.932C518.198 363.501 518.139 364.323 517.82 365.396L515.218 374.146L511.852 375.203L514.382 366.695C514.6 365.961 514.576 365.474 514.308 365.234C514.046 364.976 513.576 364.953 512.9 365.166C512.134 365.406 511.463 365.844 510.886 366.479C510.333 367.091 509.921 367.853 509.649 368.766L507.311 376.629L503.945 377.686L506.475 369.179C506.693 368.445 506.669 367.958 506.401 367.718C506.139 367.459 505.669 367.437 504.993 367.649C504.227 367.89 503.556 368.328 502.979 368.963C502.426 369.575 502.014 370.337 501.742 371.249L499.404 379.113L496.038 380.17Z" fill="white"/>
<g filter="url(#filter1_dddddd_7116_11019)">
<path d="M498.549 195.318L454.285 294.298C449.639 304.686 440.761 312.584 429.903 315.988L327.389 348.124C324.197 349.125 323.094 353.081 325.308 355.589C326.515 356.956 328.413 357.485 330.152 356.939L436.597 323.571C447.456 320.167 456.333 312.269 460.979 301.881L506.953 199.077C507.69 197.429 507.396 195.504 506.202 194.151C503.986 191.64 499.916 192.261 498.549 195.318Z" fill="#07F2C7"/>
</g>
<g filter="url(#filter2_dddddd_7116_11019)">
<path d="M451.025 303.717L501.507 189.497C502.136 188.075 500.782 186.58 499.305 187.066L375.316 227.819L319.359 347.762C318.7 349.174 320.029 350.697 321.517 350.237L439.909 313.611C444.871 312.076 448.925 308.467 451.025 303.717Z" fill="#191919"/>
<path d="M451.025 303.717L501.507 189.497C502.136 188.075 500.782 186.58 499.305 187.066L375.316 227.819L319.359 347.762C318.7 349.174 320.029 350.697 321.517 350.237L439.909 313.611C444.871 312.076 448.925 308.467 451.025 303.717Z" stroke="#07F2C7" stroke-width="1.34661" stroke-linecap="round"/>
</g>
<path d="M372.918 223.08L425.45 109.611C425.78 108.899 425.101 108.136 424.355 108.381L306.094 147.232C304.916 147.618 303.951 148.475 303.427 149.599L250.076 264.005C249.743 264.718 250.424 265.484 251.172 265.236L369.725 225.929C371.137 225.461 372.293 224.43 372.918 223.08Z" fill="#FEFFFF" stroke="black" stroke-width="0.897739"/>
<path d="M316.086 191.901L328.508 160.875C328.596 160.85 328.684 160.826 328.773 160.799C331.714 159.923 334.656 159.046 337.597 158.17C337.684 158.144 337.771 158.118 337.889 158.083L328.569 181.364L328.803 181.294C330.206 180.876 331.61 180.454 333.009 180.044C333.217 179.983 333.287 179.923 333.356 179.751C334.325 177.316 335.303 174.877 336.279 172.44C336.308 172.367 336.337 172.295 336.374 172.201L336.635 172.123C338.024 171.71 339.413 171.296 340.802 170.881C340.882 170.857 340.968 170.822 341.051 170.792L341.047 170.79C341.021 170.867 341.002 170.942 340.97 171.021C339.993 173.464 339.015 175.907 338.036 178.351C337.978 178.496 338.039 178.542 338.218 178.489C341.153 177.614 344.087 176.74 347.023 175.865C347.11 175.839 347.196 175.813 347.291 175.785L344.192 183.527L343.915 183.609C341.158 184.431 338.401 185.252 335.644 186.074C329.125 188.017 322.606 189.959 316.086 191.901L316.086 191.901Z" fill="black"/>
<path d="M358.286 158.818C358.217 158.842 358.146 158.87 358.078 158.89C356.663 159.312 355.248 159.734 353.832 160.155C353.765 160.175 353.698 160.195 353.616 160.22L356.719 152.469L361.385 151.078L358.287 158.818L358.286 158.818Z" fill="black"/>
<path d="M341.014 170.794C341.046 170.731 341.085 170.666 341.109 170.605C342.61 166.86 344.108 163.116 345.607 159.372L345.693 159.158L341.204 160.496L342.75 156.633L351.923 153.899L351.826 154.141C350.855 156.567 349.883 158.994 348.912 161.42C348.851 161.572 348.913 161.62 349.097 161.566C350.472 161.156 351.847 160.746 353.222 160.336L353.501 160.253L350.402 167.995C350.333 168.019 350.264 168.045 350.199 168.064C347.202 168.957 344.206 169.85 341.21 170.743C341.142 170.763 341.077 170.776 341.01 170.792L341.014 170.794Z" fill="black"/>
<path d="M284.247 223.511L287.685 211.254L295.539 208.953L294.949 211.054L289.399 212.68L288.579 215.604L293.64 214.121L293.051 216.223L287.99 217.706L287.14 220.735L292.795 219.078L292.205 221.179L284.247 223.511ZM293.98 220.659L296.417 211.974L298.616 211.33L296.179 220.015L293.98 220.659ZM297.801 210.636C297.405 210.752 297.104 210.723 296.897 210.548C296.701 210.369 296.662 210.07 296.78 209.65C296.898 209.229 297.127 208.852 297.467 208.516C297.818 208.178 298.191 207.95 298.587 207.834C298.994 207.715 299.296 207.745 299.491 207.923C299.687 208.102 299.726 208.401 299.608 208.821C299.49 209.241 299.261 209.619 298.921 209.954C298.582 210.29 298.208 210.517 297.801 210.636ZM299.406 215.116L299.484 214.836C299.74 213.925 300.138 213.096 300.679 212.348C301.223 211.589 301.839 210.953 302.527 210.441C303.23 209.913 303.937 209.545 304.647 209.337C305.438 209.106 305.998 209.07 306.326 209.231C306.655 209.392 306.87 209.597 306.971 209.846L307.285 209.754L307.58 208.703L309.744 208.069L306.875 218.295C306.708 218.89 306.401 219.414 305.954 219.867C305.503 220.331 304.987 220.648 304.405 220.819L298.611 222.517L299.151 220.59L304.178 219.118C304.504 219.022 304.716 218.799 304.814 218.449L305.447 216.19L305.133 216.282C304.965 216.503 304.748 216.744 304.483 217.003C304.221 217.252 303.897 217.491 303.512 217.722C303.127 217.952 302.667 218.146 302.132 218.303C301.422 218.511 300.812 218.534 300.302 218.373C299.807 218.197 299.469 217.84 299.289 217.304C299.111 216.756 299.15 216.027 299.406 215.116ZM303.3 216.193C303.975 215.995 304.6 215.614 305.175 215.049C305.75 214.484 306.147 213.81 306.367 213.028L306.416 212.853C306.638 212.059 306.582 211.519 306.246 211.231C305.925 210.929 305.421 210.878 304.735 211.08C304.06 211.277 303.435 211.659 302.86 212.223C302.288 212.777 301.891 213.45 301.669 214.244L301.619 214.419C301.4 215.201 301.457 215.742 301.789 216.041C302.122 216.34 302.626 216.39 303.3 216.193ZM313.621 215.129C312.76 215.382 312.049 215.424 311.487 215.256C310.94 215.074 310.574 214.704 310.388 214.148C310.218 213.577 310.26 212.836 310.515 211.925L310.574 211.715C310.83 210.804 311.231 209.964 311.779 209.192C312.329 208.41 312.981 207.742 313.734 207.189C314.49 206.625 315.299 206.216 316.16 205.964C317.009 205.715 317.694 205.691 318.214 205.892C318.738 206.082 319.079 206.464 319.238 207.039C319.401 207.602 319.358 208.327 319.109 209.214L318.898 209.967L312.597 211.813C312.453 212.402 312.539 212.822 312.853 213.072C313.167 213.323 313.626 213.36 314.231 213.183C314.848 213.002 315.339 212.735 315.706 212.381C316.072 212.027 316.376 211.665 316.619 211.294L318.152 211.713C317.904 212.064 317.572 212.466 317.156 212.92C316.755 213.359 316.263 213.782 315.679 214.189C315.098 214.584 314.412 214.897 313.621 215.129ZM313.076 210.162L317.125 208.976C317.22 208.487 317.129 208.144 316.853 207.947C316.589 207.745 316.172 207.728 315.602 207.895C315.009 208.069 314.495 208.359 314.061 208.765C313.627 209.171 313.299 209.636 313.076 210.162ZM319.818 213.088L322.255 204.403L324.419 203.769L324.1 204.907L324.414 204.815C324.638 204.471 324.98 204.108 325.44 203.727C325.902 203.335 326.523 203.024 327.303 202.796C327.978 202.598 328.521 202.583 328.933 202.752C329.36 202.905 329.636 203.216 329.761 203.682C329.89 204.138 329.853 204.727 329.65 205.451L328.196 210.634L325.997 211.278L327.401 206.27C327.585 205.617 327.559 205.174 327.325 204.943C327.103 204.708 326.695 204.677 326.102 204.851C325.427 205.049 324.839 205.43 324.339 205.994C323.842 206.547 323.481 207.226 323.255 208.032L322.017 212.444L319.818 213.088ZM330.573 209.937L334.011 197.68L336.21 197.036L332.772 209.293L330.573 209.937ZM337.828 208.037C337.211 208.217 336.688 208.274 336.258 208.207C335.832 208.129 335.53 207.928 335.354 207.604C335.193 207.266 335.195 206.799 335.362 206.204C335.529 205.608 335.808 205.071 336.199 204.593C336.604 204.099 337.085 203.679 337.641 203.334C338.212 202.974 338.823 202.699 339.475 202.508L341.848 201.812L341.986 201.322C342.1 200.913 342.066 200.618 341.882 200.436C341.701 200.243 341.332 200.228 340.773 200.392C340.226 200.552 339.783 200.8 339.443 201.135C339.107 201.458 338.842 201.83 338.65 202.251L336.817 202.162C337.081 201.677 337.415 201.21 337.819 200.759C338.238 200.293 338.734 199.875 339.308 199.503C339.897 199.116 340.564 198.813 341.309 198.595C342.449 198.261 343.271 198.283 343.773 198.661C344.276 199.038 344.375 199.77 344.071 200.856L343.162 204.095C343.064 204.445 343.178 204.573 343.503 204.477L344.202 204.273L343.691 206.094L342.225 206.523C341.794 206.649 341.469 206.648 341.248 206.52C341.028 206.392 340.967 206.153 341.065 205.802L341.07 205.785L340.739 205.882C340.653 206.036 340.496 206.253 340.267 206.534C340.042 206.804 339.731 207.077 339.332 207.355C338.934 207.632 338.433 207.859 337.828 208.037ZM338.713 206.138C339.329 205.957 339.877 205.642 340.356 205.191C340.85 204.724 341.177 204.205 341.337 203.633L341.387 203.458L339.17 204.108C338.763 204.227 338.418 204.408 338.136 204.652C337.855 204.895 337.67 205.174 337.581 205.489C337.493 205.804 337.543 206.026 337.732 206.152C337.92 206.279 338.247 206.274 338.713 206.138ZM345.02 208.919L345.56 206.992L350.272 205.612C350.598 205.516 350.81 205.293 350.909 204.943L351.522 202.754L351.208 202.846C351.06 203.072 350.858 203.313 350.605 203.57C350.352 203.826 350.038 204.068 349.665 204.295C349.291 204.522 348.843 204.713 348.319 204.866C347.644 205.064 347.093 205.086 346.667 204.933C346.255 204.764 345.986 204.446 345.861 203.979C345.736 203.513 345.773 202.923 345.972 202.211L347.426 197.028L349.625 196.384L348.221 201.392C348.037 202.045 348.057 202.49 348.279 202.724C348.513 202.956 348.927 202.985 349.52 202.811C350.195 202.613 350.781 202.238 351.278 201.685C351.778 201.121 352.141 200.436 352.367 199.63L353.605 195.218L355.804 194.573L352.935 204.799C352.768 205.395 352.461 205.919 352.014 206.371C351.563 206.835 351.047 207.153 350.465 207.323L345.02 208.919ZM359.69 201.631C358.829 201.883 358.118 201.926 357.556 201.758C357.009 201.575 356.643 201.206 356.457 200.65C356.286 200.078 356.329 199.337 356.584 198.427L356.643 198.217C356.899 197.306 357.3 196.465 357.847 195.694C358.398 194.911 359.05 194.244 359.803 193.691C360.559 193.126 361.368 192.718 362.229 192.466C363.078 192.217 363.763 192.193 364.283 192.394C364.807 192.584 365.148 192.966 365.307 193.54C365.47 194.104 365.426 194.829 365.177 195.716L364.966 196.469L358.666 198.315C358.522 198.904 358.607 199.323 358.921 199.574C359.235 199.825 359.695 199.862 360.3 199.684C360.917 199.504 361.408 199.236 361.774 198.883C362.14 198.529 362.445 198.167 362.688 197.795L364.22 198.214C363.972 198.565 363.641 198.968 363.225 199.422C362.824 199.861 362.332 200.284 361.748 200.691C361.167 201.086 360.481 201.399 359.69 201.631ZM359.145 196.664L363.194 195.477C363.288 194.989 363.198 194.646 362.922 194.448C362.658 194.247 362.241 194.23 361.671 194.397C361.078 194.571 360.564 194.861 360.13 195.266C359.695 195.672 359.367 196.138 359.145 196.664ZM365.887 199.59L368.323 190.905L370.488 190.271L370.212 191.251L370.527 191.159C370.753 190.772 371.034 190.454 371.371 190.205C371.719 189.953 372.091 189.769 372.487 189.653L373.534 189.346L372.984 191.307L371.902 191.624C371.343 191.788 370.841 192.074 370.395 192.484C369.953 192.881 369.645 193.389 369.471 194.008L368.086 198.946L365.887 199.59Z" fill="black"/>
<path d="M298.215 142.947L350.747 29.4785C351.077 28.7662 350.398 28.0035 349.652 28.2485L231.391 67.0987C230.213 67.4857 229.248 68.3425 228.724 69.4661L175.372 183.872C175.04 184.585 175.721 185.351 176.469 185.103L295.022 145.797C296.434 145.328 297.59 144.297 298.215 142.947Z" fill="#151515" stroke="black" stroke-width="1.80364"/>
<g filter="url(#filter3_dddddd_7116_11019)">
<path d="M295.471 78.0032L285.971 68.9965L268.471 73.4965L256.971 87.4965L253.403 78.0012L248.745 76.9972L253.403 93.4965L242.465 100.995L242.465 103.995L247.87 111.165L237.776 127.986L219.874 132.305L230.841 143.94L248.743 139.621L259.287 127.355L266.362 135.953L289.469 130.5L275.971 103.995L295.471 78.0032Z" fill="black"/>
</g>
<g filter="url(#filter4_dddddd_7116_11019)">
<path d="M267.888 74.1867L283.853 70.6657L262.809 96.4166L247.77 99.7333L267.888 74.1867Z" stroke="#07F2C7" stroke-width="2.47385"/>
<path d="M256.277 122.532L272.195 119.022L262.042 100.151L247.046 103.459L256.277 122.532Z" stroke="#07F2C7" stroke-width="2.47385"/>
<path fill-rule="evenodd" clip-rule="evenodd" d="M232.844 80.6875L248.762 77.1769L257.915 98.5425L242.471 102.207L232.844 80.6875ZM238.569 127.867L220.546 131.783L242.212 103.277L257.736 99.9128L238.569 127.867Z" fill="#07F2C7"/>
</g>
<path d="M365.323 43.128L352.523 28.6282C352.093 28.1414 351.305 28.2577 351.034 28.8477L298.508 143.252C297.883 144.615 296.717 145.655 295.292 146.123L175.783 185.324C175.17 185.525 174.963 186.287 175.39 186.771L188.571 201.703C189.039 202.233 189.775 202.439 190.45 202.229L308.007 165.717C311.729 164.561 314.767 161.849 316.337 158.283L365.768 45.9955C366.192 45.0345 366.018 43.9152 365.323 43.128Z" fill="#303030" stroke="black" stroke-width="1.80364"/>
<path d="M437.653 120.573L426.652 108.111C426.22 107.621 425.424 107.743 425.159 108.341L375.301 220.644C373.732 224.179 370.718 226.868 367.028 228.027L249.923 264.803C249.303 264.998 249.089 265.766 249.519 266.254L260.903 279.15C261.373 279.681 262.111 279.887 262.787 279.674L379.712 242.955C383.648 241.719 386.862 238.85 388.536 235.079L438.096 123.448C438.523 122.486 438.35 121.363 437.653 120.573Z" fill="#303030" stroke="black" stroke-width="1.80279"/>
<g filter="url(#filter5_dddddd_7116_11019)">
<path d="M435.053 314.733L435.871 317.108C436.11 317.801 435.724 318.553 435.022 318.763C434.345 318.966 433.632 318.586 433.421 317.912L432.549 315.121C432.165 313.894 432.37 312.559 433.104 311.503L435.225 308.45C435.538 307.999 436.178 307.927 436.583 308.297C436.907 308.593 436.974 309.079 436.741 309.451L435.417 311.562C434.823 312.51 434.689 313.675 435.053 314.733Z" fill="#07F2C7"/>
<path d="M429.428 316.904L430.246 319.28C430.485 319.973 430.099 320.725 429.397 320.935C428.72 321.137 428.007 320.758 427.796 320.084L426.924 317.293C426.54 316.066 426.745 314.731 427.479 313.675L429.6 310.622C429.913 310.171 430.553 310.099 430.958 310.469C431.282 310.765 431.349 311.251 431.116 311.623L429.792 313.734C429.198 314.682 429.064 315.847 429.428 316.904Z" fill="#07F2C7"/>
<path d="M423.819 319.053L424.637 321.428C424.876 322.121 424.489 322.874 423.787 323.084C423.111 323.286 422.398 322.907 422.187 322.233L421.314 319.441C420.931 318.214 421.136 316.879 421.869 315.823L423.991 312.77C424.304 312.319 424.943 312.247 425.349 312.618C425.673 312.914 425.739 313.399 425.506 313.771L424.183 315.882C423.589 316.83 423.455 317.995 423.819 319.053Z" fill="#07F2C7"/>
<path d="M417.538 320.608L418.356 322.983C418.594 323.676 418.208 324.428 417.506 324.638C416.83 324.841 416.116 324.461 415.906 323.787L415.033 320.996C414.65 319.769 414.854 318.434 415.588 317.378L417.709 314.325C418.023 313.874 418.662 313.802 419.068 314.172C419.392 314.468 419.458 314.954 419.225 315.326L417.901 317.437C417.307 318.385 417.174 319.55 417.538 320.608Z" fill="#07F2C7"/>
<path d="M411.249 322.17L412.067 324.545C412.305 325.238 411.919 325.991 411.217 326.201C410.541 326.403 409.827 326.024 409.617 325.35L408.744 322.558C408.361 321.331 408.565 319.996 409.299 318.941L411.42 315.887C411.734 315.436 412.373 315.365 412.779 315.735C413.103 316.031 413.169 316.516 412.936 316.888L411.612 319C411.018 319.947 410.885 321.113 411.249 322.17Z" fill="#07F2C7"/>
<path d="M405.632 324.326L406.45 326.702C406.688 327.395 406.302 328.147 405.6 328.357C404.923 328.559 404.21 328.18 403.999 327.506L403.127 324.715C402.743 323.488 402.948 322.152 403.682 321.097L405.803 318.044C406.117 317.593 406.756 317.521 407.161 317.891C407.486 318.187 407.552 318.672 407.319 319.044L405.995 321.156C405.401 322.103 405.267 323.269 405.632 324.326Z" fill="#07F2C7"/>
<path d="M400.608 325.826L401.426 328.202C401.665 328.895 401.279 329.647 400.576 329.857C399.9 330.059 399.187 329.68 398.976 329.006L398.104 326.215C397.72 324.988 397.925 323.652 398.658 322.597L400.78 319.544C401.093 319.093 401.732 319.021 402.138 319.391C402.462 319.687 402.528 320.172 402.295 320.544L400.972 322.656C400.378 323.603 400.244 324.769 400.608 325.826Z" fill="#07F2C7"/>
<path d="M394.991 327.998L395.809 330.374C396.048 331.067 395.661 331.819 394.959 332.029C394.283 332.231 393.569 331.852 393.359 331.178L392.486 328.386C392.103 327.16 392.308 325.824 393.041 324.769L395.163 321.716C395.476 321.264 396.115 321.193 396.521 321.563C396.845 321.859 396.911 322.344 396.678 322.716L395.354 324.828C394.76 325.775 394.627 326.941 394.991 327.998Z" fill="#07F2C7"/>
<path d="M389.975 329.498L390.793 331.874C391.032 332.567 390.646 333.319 389.944 333.529C389.267 333.731 388.554 333.352 388.343 332.678L387.471 329.886C387.087 328.66 387.292 327.324 388.025 326.269L390.147 323.216C390.46 322.764 391.099 322.693 391.505 323.063C391.829 323.359 391.896 323.844 391.662 324.216L390.339 326.328C389.745 327.275 389.611 328.441 389.975 329.498Z" fill="#07F2C7"/>
<path d="M384.952 331.006L385.77 333.381C386.009 334.074 385.622 334.827 384.92 335.037C384.244 335.239 383.53 334.86 383.32 334.186L382.447 331.394C382.064 330.167 382.269 328.832 383.002 327.777L385.123 324.723C385.437 324.272 386.076 324.2 386.482 324.571C386.806 324.867 386.872 325.352 386.639 325.724L385.315 327.836C384.721 328.783 384.588 329.949 384.952 331.006Z" fill="#07F2C7"/>
<path d="M378.671 332.561L379.489 334.936C379.727 335.629 379.341 336.381 378.639 336.591C377.962 336.794 377.249 336.414 377.039 335.741L376.166 332.949C375.783 331.722 375.987 330.387 376.721 329.331L378.842 326.278C379.156 325.827 379.795 325.755 380.2 326.125C380.525 326.421 380.591 326.907 380.358 327.279L379.034 329.39C378.44 330.338 378.306 331.503 378.671 332.561Z" fill="#07F2C7"/>
<path d="M373.069 334.717L373.887 337.092C374.126 337.785 373.739 338.538 373.037 338.748C372.361 338.95 371.648 338.571 371.437 337.897L370.564 335.105C370.181 333.878 370.386 332.543 371.119 331.488L373.241 328.434C373.554 327.983 374.193 327.911 374.599 328.282C374.923 328.578 374.989 329.063 374.756 329.435L373.433 331.546C372.839 332.494 372.705 333.66 373.069 334.717Z" fill="#07F2C7"/>
<path d="M366.764 337.6L367.582 339.975C367.821 340.668 367.435 341.42 366.733 341.63C366.056 341.833 365.343 341.454 365.132 340.78L364.26 337.988C363.876 336.761 364.081 335.426 364.815 334.37L366.936 331.317C367.249 330.866 367.888 330.794 368.294 331.165C368.618 331.46 368.685 331.946 368.451 332.318L367.128 334.429C366.534 335.377 366.4 336.542 366.764 337.6Z" fill="#07F2C7"/>
<path d="M360.475 339.162L361.293 341.538C361.532 342.231 361.146 342.983 360.444 343.193C359.767 343.395 359.054 343.016 358.843 342.342L357.971 339.55C357.587 338.324 357.792 336.988 358.525 335.933L360.647 332.88C360.96 332.429 361.599 332.357 362.005 332.727C362.329 333.023 362.396 333.508 362.162 333.88L360.839 335.992C360.245 336.939 360.111 338.105 360.475 339.162Z" fill="#07F2C7"/>
<path d="M355.03 341.288L356.118 343.553C356.435 344.214 356.138 345.006 355.465 345.296C354.817 345.575 354.064 345.281 353.777 344.636L352.587 341.964C352.064 340.79 352.113 339.44 352.719 338.306L354.473 335.028C354.732 334.544 355.359 334.398 355.805 334.719C356.161 334.976 356.283 335.45 356.094 335.847L355.024 338.097C354.544 339.107 354.546 340.28 355.03 341.288Z" fill="#07F2C7"/>
<path d="M349.913 342.764L350.731 345.139C350.969 345.832 350.583 346.585 349.881 346.795C349.205 346.997 348.491 346.618 348.281 345.944L347.408 343.152C347.025 341.925 347.229 340.59 347.963 339.534L350.084 336.481C350.398 336.03 351.037 335.958 351.443 336.329C351.767 336.625 351.833 337.11 351.6 337.482L350.276 339.593C349.682 340.541 349.549 341.706 349.913 342.764Z" fill="#07F2C7"/>
<path d="M344.241 343.654L345.059 346.03C345.298 346.723 344.911 347.475 344.209 347.685C343.533 347.887 342.819 347.508 342.609 346.834L341.736 344.043C341.353 342.816 341.558 341.481 342.291 340.425L344.413 337.372C344.726 336.921 345.365 336.849 345.771 337.219C346.095 337.515 346.161 338.001 345.928 338.373L344.604 340.484C344.01 341.432 343.877 342.597 344.241 343.654Z" fill="#07F2C7"/>
<path d="M338.6 345.834L339.418 348.209C339.657 348.902 339.271 349.655 338.569 349.865C337.892 350.067 337.179 349.688 336.968 349.014L336.096 346.222C335.712 344.995 335.917 343.66 336.65 342.605L338.772 339.552C339.085 339.1 339.724 339.029 340.13 339.399C340.454 339.695 340.521 340.18 340.287 340.552L338.964 342.664C338.37 343.611 338.236 344.777 338.6 345.834Z" fill="#07F2C7"/>
<path d="M332.999 347.983L333.817 350.358C334.055 351.051 333.669 351.803 332.967 352.013C332.291 352.216 331.577 351.836 331.367 351.162L330.494 348.371C330.111 347.144 330.315 345.809 331.049 344.753L333.17 341.7C333.484 341.249 334.123 341.177 334.529 341.547C334.853 341.843 334.919 342.329 334.686 342.701L333.362 344.812C332.768 345.76 332.635 346.925 332.999 347.983Z" fill="#07F2C7"/>
<path d="M326.694 349.553L327.512 351.928C327.751 352.621 327.364 353.374 326.662 353.584C325.986 353.786 325.273 353.407 325.062 352.733L324.189 349.941C323.806 348.714 324.011 347.379 324.744 346.323L326.866 343.27C327.179 342.819 327.818 342.747 328.224 343.118C328.548 343.414 328.614 343.899 328.381 344.271L327.058 346.382C326.464 347.33 326.33 348.495 326.694 349.553Z" fill="#07F2C7"/>
</g>
<g filter="url(#filter6_dddddd_7116_11019)">
<path d="M454.514 297.387L456.785 298.46C457.448 298.773 458.238 298.471 458.524 297.796C458.799 297.146 458.5 296.395 457.853 296.112L455.173 294.94C453.996 294.425 452.646 294.483 451.517 295.096L448.25 296.871C447.767 297.134 447.626 297.761 447.95 298.205C448.209 298.56 448.684 298.678 449.079 298.487L451.322 297.402C452.329 296.915 453.502 296.91 454.514 297.387Z" fill="#07F2C7"/>
<path d="M457.287 292.036L459.559 293.108C460.222 293.421 461.012 293.12 461.297 292.445C461.572 291.794 461.273 291.044 460.626 290.761L457.947 289.589C456.769 289.073 455.419 289.131 454.29 289.745L451.023 291.52C450.541 291.782 450.399 292.41 450.723 292.853C450.982 293.208 451.457 293.327 451.852 293.136L454.096 292.051C455.103 291.564 456.276 291.558 457.287 292.036Z" fill="#07F2C7"/>
<path d="M460.037 286.692L462.309 287.765C462.972 288.078 463.762 287.776 464.047 287.101C464.322 286.451 464.023 285.7 463.376 285.417L460.697 284.245C459.519 283.73 458.169 283.787 457.04 284.401L453.773 286.176C453.291 286.438 453.149 287.066 453.473 287.51C453.732 287.864 454.207 287.983 454.602 287.792L456.846 286.707C457.853 286.22 459.026 286.215 460.037 286.692Z" fill="#07F2C7"/>
<path d="M462.279 280.622L464.551 281.694C465.214 282.007 466.004 281.706 466.289 281.03C466.564 280.38 466.265 279.63 465.618 279.347L462.939 278.174C461.761 277.659 460.412 277.717 459.282 278.331L456.015 280.106C455.533 280.368 455.392 280.996 455.715 281.439C455.974 281.794 456.449 281.913 456.845 281.722L459.088 280.637C460.095 280.15 461.268 280.144 462.279 280.622Z" fill="#07F2C7"/>
<path d="M464.506 274.528L466.778 275.601C467.44 275.914 468.23 275.612 468.516 274.937C468.791 274.286 468.492 273.536 467.845 273.253L465.165 272.081C463.988 271.566 462.638 271.623 461.509 272.237L458.242 274.012C457.759 274.274 457.618 274.902 457.942 275.346C458.201 275.7 458.676 275.819 459.071 275.628L461.315 274.543C462.321 274.056 463.494 274.05 464.506 274.528Z" fill="#07F2C7"/>
<path d="M467.279 269.184L469.551 270.257C470.214 270.57 471.004 270.268 471.289 269.593C471.564 268.943 471.265 268.192 470.618 267.909L467.939 266.737C466.761 266.222 465.412 266.279 464.282 266.893L461.015 268.668C460.533 268.931 460.392 269.558 460.715 270.002C460.974 270.356 461.449 270.475 461.845 270.284L464.088 269.199C465.095 268.712 466.268 268.707 467.279 269.184Z" fill="#07F2C7"/>
<path d="M469.326 264.372L471.598 265.444C472.261 265.757 473.051 265.456 473.336 264.78C473.611 264.13 473.312 263.38 472.665 263.097L469.986 261.924C468.808 261.409 467.458 261.467 466.329 262.081L463.062 263.856C462.58 264.118 462.439 264.746 462.762 265.189C463.021 265.544 463.496 265.663 463.891 265.472L466.135 264.387C467.142 263.9 468.315 263.894 469.326 264.372Z" fill="#07F2C7"/>
<path d="M472.076 259.005L474.348 260.077C475.011 260.39 475.801 260.088 476.086 259.413C476.361 258.763 476.062 258.013 475.415 257.73L472.736 256.557C471.558 256.042 470.208 256.1 469.079 256.713L465.812 258.489C465.33 258.751 465.189 259.378 465.512 259.822C465.771 260.177 466.246 260.296 466.641 260.104L468.885 259.019C469.892 258.532 471.065 258.527 472.076 259.005Z" fill="#07F2C7"/>
<path d="M474.123 254.176L476.395 255.249C477.058 255.562 477.848 255.26 478.133 254.585C478.408 253.935 478.109 253.184 477.462 252.901L474.783 251.729C473.605 251.214 472.255 251.272 471.126 251.885L467.859 253.661C467.377 253.923 467.235 254.55 467.559 254.994C467.818 255.349 468.293 255.467 468.688 255.276L470.932 254.191C471.939 253.704 473.112 253.699 474.123 254.176Z" fill="#07F2C7"/>
<path d="M476.154 249.38L478.426 250.452C479.089 250.765 479.879 250.463 480.164 249.788C480.439 249.138 480.14 248.388 479.493 248.105L476.814 246.932C475.636 246.417 474.287 246.475 473.157 247.088L469.89 248.864C469.408 249.126 469.267 249.753 469.59 250.197C469.849 250.552 470.324 250.671 470.72 250.479L472.963 249.394C473.97 248.907 475.143 248.902 476.154 249.38Z" fill="#07F2C7"/>
<path d="M478.381 243.294L480.653 244.366C481.315 244.679 482.105 244.377 482.391 243.702C482.666 243.052 482.367 242.302 481.72 242.019L479.04 240.846C477.863 240.331 476.513 240.389 475.384 241.003L472.117 242.778C471.634 243.04 471.493 243.667 471.817 244.111C472.076 244.466 472.551 244.585 472.946 244.393L475.19 243.308C476.196 242.822 477.369 242.816 478.381 243.294Z" fill="#07F2C7"/>
<path d="M481.139 237.942L483.41 239.015C484.073 239.328 484.863 239.026 485.149 238.351C485.424 237.701 485.125 236.95 484.478 236.667L481.798 235.495C480.621 234.98 479.271 235.037 478.142 235.651L474.875 237.426C474.392 237.688 474.251 238.316 474.575 238.76C474.834 239.114 475.309 239.233 475.704 239.042L477.947 237.957C478.954 237.47 480.127 237.465 481.139 237.942Z" fill="#07F2C7"/>
<path d="M484.123 231.333L486.395 232.405C487.058 232.718 487.848 232.416 488.133 231.741C488.408 231.091 488.109 230.341 487.462 230.058L484.783 228.885C483.605 228.37 482.255 228.428 481.126 229.042L477.859 230.817C477.377 231.079 477.235 231.706 477.559 232.15C477.818 232.505 478.293 232.624 478.688 232.433L480.932 231.348C481.939 230.861 483.112 230.855 484.123 231.333Z" fill="#07F2C7"/>
<path d="M486.93 225.892L489.25 226.856C489.927 227.137 490.702 226.798 490.955 226.11C491.199 225.448 490.864 224.712 490.205 224.46L487.473 223.416C486.272 222.958 484.927 223.079 483.828 223.746L480.649 225.674C480.179 225.959 480.068 226.592 480.412 227.02C480.688 227.362 481.168 227.458 481.554 227.249L483.743 226.059C484.726 225.524 485.897 225.463 486.93 225.892Z" fill="#07F2C7"/>
<path d="M489.639 220.645L491.91 221.718C492.573 222.031 493.363 221.729 493.649 221.054C493.924 220.404 493.625 219.653 492.978 219.37L490.298 218.198C489.121 217.683 487.771 217.74 486.642 218.354L483.375 220.129C482.892 220.392 482.751 221.019 483.075 221.463C483.334 221.817 483.809 221.936 484.204 221.745L486.447 220.66C487.454 220.173 488.627 220.168 489.639 220.645Z" fill="#07F2C7"/>
<path d="M491.678 215.825L493.949 216.897C494.612 217.21 495.402 216.909 495.688 216.234C495.963 215.583 495.664 214.833 495.017 214.55L492.337 213.378C491.16 212.862 489.81 212.92 488.681 213.534L485.414 215.309C484.931 215.571 484.79 216.199 485.114 216.642C485.373 216.997 485.848 217.116 486.243 216.925L488.486 215.84C489.493 215.353 490.666 215.347 491.678 215.825Z" fill="#07F2C7"/>
<path d="M493.186 210.27L495.457 211.343C496.12 211.656 496.91 211.354 497.196 210.679C497.47 210.029 497.171 209.278 496.525 208.995L493.845 207.823C492.667 207.308 491.318 207.365 490.188 207.979L486.922 209.754C486.439 210.017 486.298 210.644 486.622 211.088C486.88 211.442 487.356 211.561 487.751 211.37L489.994 210.285C491.001 209.798 492.174 209.793 493.186 210.27Z" fill="#07F2C7"/>
<path d="M495.951 204.926L498.223 205.999C498.886 206.312 499.676 206.01 499.961 205.335C500.236 204.685 499.937 203.934 499.29 203.651L496.611 202.479C495.433 201.964 494.083 202.022 492.954 202.635L489.687 204.411C489.205 204.673 489.064 205.3 489.387 205.744C489.646 206.099 490.121 206.217 490.516 206.026L492.76 204.941C493.767 204.454 494.94 204.449 495.951 204.926Z" fill="#07F2C7"/>
<path d="M498.717 199.575L500.988 200.647C501.651 200.96 502.441 200.659 502.727 199.984C503.002 199.333 502.703 198.583 502.056 198.3L499.376 197.128C498.199 196.612 496.849 196.67 495.72 197.284L492.453 199.059C491.97 199.321 491.829 199.949 492.153 200.392C492.412 200.747 492.887 200.866 493.282 200.675L495.526 199.59C496.532 199.103 497.705 199.097 498.717 199.575Z" fill="#07F2C7"/>
<path d="M500.951 193.497L503.223 194.569C503.886 194.882 504.676 194.581 504.961 193.905C505.236 193.255 504.937 192.505 504.29 192.222L501.611 191.049C500.433 190.534 499.083 190.592 497.954 191.206L494.687 192.981C494.205 193.243 494.064 193.871 494.387 194.314C494.646 194.669 495.121 194.788 495.516 194.597L497.76 193.512C498.767 193.025 499.94 193.019 500.951 193.497Z" fill="#07F2C7"/>
</g>
<g filter="url(#filter7_dddddd_7116_11019)">
<path d="M345.126 72.4263C344.402 72.0062 343.473 72.3049 343.13 73.0684L327.318 108.221C327.021 108.88 327.271 109.658 327.897 110.021C328.621 110.441 329.55 110.143 329.893 109.379L345.705 74.2268C346.002 73.5669 345.752 72.7895 345.126 72.4263Z" fill="#07F2C7"/>
</g>
<g filter="url(#filter8_dddddd_7116_11019)">
<path d="M280.339 164.665C280.075 163.948 279.29 163.57 278.565 163.809L258.662 170.36C257.899 170.612 257.496 171.445 257.774 172.199C258.039 172.916 258.823 173.295 259.549 173.056L279.452 166.503C280.214 166.252 280.617 165.419 280.339 164.665Z" fill="#07F2C7"/>
</g>
<g filter="url(#filter9_dddddd_7116_11019)">
<path d="M231.034 180.689C230.77 179.972 229.986 179.593 229.26 179.832L209.357 186.384C208.594 186.635 208.192 187.469 208.47 188.222C208.734 188.939 209.519 189.318 210.244 189.079L230.147 182.527C230.91 182.276 231.312 181.442 231.034 180.689Z" fill="#07F2C7"/>
</g>
<g filter="url(#filter10_dddddd_7116_11019)">
<path d="M301.948 260.587C301.684 259.87 300.9 259.492 300.174 259.73L280.271 266.282C279.508 266.533 279.106 267.367 279.384 268.121C279.648 268.838 280.433 269.216 281.158 268.977L301.061 262.425C301.824 262.174 302.226 261.34 301.948 260.587Z" fill="#07F2C7"/>
</g>
<g filter="url(#filter11_dddddd_7116_11019)">
<path d="M350.019 244.501C349.754 243.784 348.97 243.406 348.244 243.644L328.341 250.196C327.579 250.448 327.176 251.281 327.454 252.035C327.718 252.752 328.503 253.13 329.229 252.892L349.131 246.339C349.894 246.088 350.297 245.255 350.019 244.501Z" fill="#07F2C7"/>
</g>
<g filter="url(#filter12_dddddd_7116_11019)">
<path d="M413.634 159.497C412.91 159.077 411.981 159.375 411.638 160.139L395.825 195.291C395.528 195.951 395.779 196.728 396.404 197.091C397.129 197.512 398.057 197.213 398.401 196.449L414.213 161.297C414.51 160.637 414.26 159.86 413.634 159.497Z" fill="#07F2C7"/>
</g>
<g filter="url(#filter13_dddddd_7116_11019)">
<path d="M606.423 239.106C604.442 239.423 602.753 240.714 601.927 242.542L575.105 301.845C574.369 303.472 574.457 305.353 575.342 306.904C577.583 310.829 583.317 310.594 585.23 306.5L612.778 247.53C614.805 243.189 611.153 238.348 606.423 239.106Z" fill="#07F2C7"/>
</g>
<g filter="url(#filter14_dddddd_7116_11019)">
<path d="M566.501 329.801C564.962 330.141 563.674 331.187 563.025 332.624L536.094 392.273C535.256 394.128 535.679 396.31 537.148 397.719C539.534 400.006 543.463 399.257 544.841 396.253L572.12 336.762C573.839 333.011 570.53 328.911 566.501 329.801Z" fill="#07F2C7"/>
</g>
<g filter="url(#filter15_dddddd_7116_11019)">
<path d="M529.645 405.27C528.611 404.226 527.083 403.842 525.678 404.273L462.122 423.766C460.771 424.181 459.73 425.265 459.372 426.632C458.561 429.73 461.471 432.511 464.529 431.561L528.01 411.824C530.841 410.944 531.73 407.376 529.645 405.27Z" fill="#07F2C7"/>
</g>
<g filter="url(#filter16_dddddd_7116_11019)">
<path d="M434.893 430.772C433.341 429.78 431.433 429.517 429.67 430.052L368.997 448.459C366.141 449.325 364.209 451.981 364.264 454.965C364.346 459.422 368.693 462.545 372.943 461.202L433.4 442.096C438.5 440.484 439.402 433.651 434.893 430.772Z" fill="#07F2C7"/>
</g>
<path d="M525.788 391.675L525.706 391.863L525.511 391.924L367.058 441.383C365.938 441.732 365.106 442.677 364.901 443.832L361.998 460.154C361.694 461.866 362.838 463.5 364.552 463.799L364.474 464.241L364.552 463.799L366.39 464.12L368.455 461.282C366.671 459.008 367.398 456.564 368.03 455.577L368.118 455.44L368.273 455.391L432.496 435.221L432.575 435.196L432.658 435.201C433.32 435.242 433.847 435.59 434.253 436.062C434.654 436.529 434.956 437.14 435.185 437.776C435.559 438.817 435.761 440.001 435.849 440.937L463.278 431.66C462.351 430.389 462.111 429.118 462.232 428.01C462.367 426.772 462.949 425.765 463.459 425.203L463.54 425.113L463.655 425.077L526.274 405.125L526.52 405.046L526.712 405.22C528.822 407.135 529.083 409.519 528.871 411.012L539.309 407.288L543.581 398.154C542.565 398.275 541.607 397.883 540.816 397.333C539.768 396.603 538.932 395.546 538.477 394.793L538.356 394.593L538.451 394.379L565.462 333.412L565.49 333.349L565.535 333.297C566.681 332 568.274 332.122 569.639 332.662C570.755 333.103 571.821 333.856 572.596 334.531L583.653 308.185C582.477 308.112 581.395 307.513 580.516 306.8C579.447 305.931 578.606 304.837 578.152 304.086L578.031 303.885L578.126 303.67L605.098 243.337L605.179 243.156L605.367 243.094C608.041 242.213 610.005 242.366 611.383 242.98C612.36 243.415 613.018 244.073 613.41 244.712L616.239 240.755L615.186 239.562C614.582 238.878 613.711 238.49 612.798 238.499L594.805 238.682C593.569 238.695 592.455 239.431 591.959 240.564L525.788 391.675Z" fill="url(#paint1_linear_7116_11019)" stroke="black" stroke-width="0.897739"/>
<path d="M421.834 234.36L420.191 251.726L409.765 271.744C409.418 272.409 408.876 272.976 408.405 273.093L403.687 274.274L414.483 253.247L414.664 252.894L414.696 252.58L416.468 234.705L421.182 233.525C421.649 233.408 421.89 233.773 421.834 234.36ZM408.938 237.587L407.295 254.953L396.869 274.971C396.522 275.636 395.979 276.203 395.508 276.321L390.791 277.501L401.587 256.475L401.768 256.121L401.799 255.807L403.571 237.932L408.286 236.752C408.753 236.635 408.994 237 408.938 237.587ZM390.57 277.931L390.57 277.931C390.57 277.931 390.57 277.931 390.57 277.931L390.464 277.88L390.57 277.931Z" stroke="white" stroke-width="1.46727"/>
<path d="M414.638 249.27L407.664 251.016L404.766 259.996L411.74 258.251L414.37 253.347L414.638 249.27Z" fill="white"/>
<path d="M419.395 233.115L424.335 231.879C425.009 231.71 425.397 232.227 425.307 233.175L423.653 250.654C423.64 250.789 423.59 250.947 423.511 251.098L423.452 251.211L423.451 251.212L413.018 271.244C412.458 272.319 411.633 273.148 410.954 273.318L406.015 274.554C405.737 274.624 405.683 274.235 405.91 273.794L416.927 252.338L418.737 234.074C418.776 233.678 419.115 233.185 419.395 233.115Z" fill="white"/>
<path d="M406.499 236.342L411.439 235.106C412.113 234.937 412.5 235.454 412.411 236.403L410.757 253.882C410.744 254.016 410.693 254.174 410.614 254.326L410.556 254.438L410.555 254.44L400.122 274.471C399.561 275.547 398.737 276.376 398.058 276.545L393.118 277.782C392.841 277.851 392.787 277.463 393.013 277.021L404.03 255.565L405.841 237.301C405.88 236.905 406.218 236.412 406.499 236.342Z" fill="white"/>
<path d="M417.49 248.559L410.516 250.305L407.618 259.285L414.592 257.54L417.222 252.636L417.49 248.559Z" fill="white"/>
<path d="M356.286 310.384L359.479 299.649L361.494 299.016L360.176 303.448L364.145 302.202L365.463 297.77L367.478 297.137L364.285 307.872L362.27 308.505L363.597 304.042L359.629 305.289L358.301 309.752L356.286 310.384ZM369.051 306.375L370.151 302.679L368.611 296.781L370.855 296.076L371.746 299.967L372.021 299.881L375.648 294.571L377.892 293.866L372.166 302.046L371.066 305.742L369.051 306.375ZM375.829 304.246L379.022 293.511L383.418 292.13C384.09 291.919 384.639 291.872 385.066 291.988C385.506 292.091 385.795 292.343 385.934 292.744C386.083 293.142 386.058 293.678 385.857 294.353L385.793 294.568C385.596 295.233 385.27 295.863 384.815 296.46C384.374 297.044 383.853 297.555 383.252 297.994C382.664 298.42 382.045 298.735 381.393 298.939L379.012 299.687L377.844 303.613L375.829 304.246ZM379.559 297.847L381.742 297.161C382.22 297.011 382.647 296.757 383.021 296.398C383.395 296.04 383.651 295.63 383.787 295.17L383.833 295.017C383.97 294.557 383.93 294.24 383.714 294.067C383.498 293.894 383.151 293.882 382.673 294.033L380.49 294.718L379.559 297.847ZM385.042 301.353L388.235 290.617L395.104 288.46L394.556 290.3L389.702 291.825L388.941 294.386L393.367 292.995L392.82 294.836L388.393 296.226L387.604 298.879L392.55 297.326L392.003 299.166L385.042 301.353ZM393.494 298.698L396.687 287.962L401.327 286.505C401.999 286.294 402.549 286.228 402.978 286.306C403.407 286.385 403.695 286.596 403.842 286.939C403.989 287.282 403.975 287.745 403.802 288.328L403.747 288.512C403.556 289.156 403.248 289.725 402.824 290.22C402.4 290.714 401.937 291.124 401.435 291.449L401.353 291.725C401.754 291.617 402.026 291.661 402.171 291.857C402.319 292.042 402.329 292.349 402.202 292.779L401.157 296.291L399.142 296.924L400.1 293.703C400.173 293.458 400.166 293.279 400.079 293.167C400.003 293.052 399.817 293.041 399.522 293.134L396.713 294.016L395.509 298.065L393.494 298.698ZM397.261 292.176L399.672 291.418C400.151 291.268 400.56 291.024 400.901 290.685C401.255 290.333 401.495 289.942 401.623 289.512L401.669 289.359C401.796 288.93 401.766 288.629 401.577 288.456C401.392 288.274 401.055 288.259 400.566 288.412L398.155 289.17L397.261 292.176ZM403.139 295.668L406.332 284.933L408.347 284.3L405.701 293.195L410.586 291.661L410.039 293.501L403.139 295.668ZM410.68 293.3L416.681 281.682L420.192 280.58L419.808 290.433L417.732 291.085L417.854 288.905L414.038 290.104L412.756 292.648L410.68 293.3ZM415.068 288.084L417.938 287.183L418.195 282.361L417.921 282.447L415.068 288.084ZM421.087 290.031L424.28 279.296L428.111 278.092L427.451 286.781L427.725 286.695L430.508 277.34L432.492 276.716L429.299 287.452L425.468 288.655L426.128 279.966L425.854 280.053L423.071 289.408L421.087 290.031ZM431.313 286.819L434.506 276.084L441.375 273.926L440.828 275.767L435.973 277.291L435.212 279.852L439.639 278.462L439.091 280.302L434.664 281.693L433.875 284.346L438.821 282.792L438.274 284.633L431.313 286.819Z" fill="white"/>
<path d="M616.939 241.136L740.367 379.67" stroke="url(#paint2_linear_7116_11019)" stroke-width="0.421481"/>
<path d="M539.486 407.511L662.913 546.045" stroke="url(#paint3_linear_7116_11019)" stroke-width="0.421481"/>
<path d="M367.204 465.168L490.632 603.701" stroke="url(#paint4_linear_7116_11019)" stroke-width="0.421481"/>
<path d="M381.493 56.3629L504.921 194.896" stroke="url(#paint5_linear_7116_11019)" stroke-width="0.421481"/>
<path d="M202.681 214.16L326.109 352.693" stroke="url(#paint6_linear_7116_11019)" stroke-width="0.421481"/>
<path d="M230.157 -110.332L353.585 28.201" stroke="url(#paint7_linear_7116_11019)" stroke-width="0.421481"/>
<path d="M51.3528 47.4645L174.781 185.998" stroke="url(#paint8_linear_7116_11019)" stroke-width="0.421481"/>
<path d="M110.935 -69.5409L229.062 67.1266" stroke="url(#paint9_linear_7116_11019)" stroke-width="0.421481"/>
</g>
<path d="M211.4 360.996L334.828 499.529" stroke="url(#paint10_linear_7116_11019)" stroke-width="0.25" stroke-linecap="round"/>
<path d="M666.4 162.996L789.828 301.529" stroke="url(#paint11_linear_7116_11019)" stroke-width="0.25" stroke-linecap="round"/>
<path d="M666.4 30.9957L789.828 169.529" stroke="url(#paint12_linear_7116_11019)" stroke-width="0.25" stroke-linecap="round"/>
<path d="M483.4 30.9957L606.828 169.529" stroke="url(#paint13_linear_7116_11019)" stroke-width="0.25" stroke-linecap="round"/>
<path d="M41.3997 222.996L164.828 361.529" stroke="url(#paint14_linear_7116_11019)" stroke-width="0.25" stroke-linecap="round"/>
<path d="M41.3997 360.996L164.828 499.529" stroke="url(#paint15_linear_7116_11019)" stroke-width="0.25" stroke-linecap="round"/>
</g>
<path d="M0.5 30C0.5 13.7076 13.7076 0.5 30 0.5H798C814.292 0.5 827.5 13.7076 827.5 30V479C827.5 495.292 814.292 508.5 798 508.5H30C13.7076 508.5 0.5 495.292 0.5 479V30Z" stroke="#EFEFEF"/>
</g>
<defs>
<filter id="filter0_b_7116_11019" x="-110.833" y="-110.833" width="1049.67" height="730.667" filterUnits="userSpaceOnUse" color-interpolation-filters="sRGB">
<feFlood flood-opacity="0" result="BackgroundImageFix"/>
<feGaussianBlur in="BackgroundImageFix" stdDeviation="55.4167"/>
<feComposite in2="SourceAlpha" operator="in" result="effect1_backgroundBlur_7116_11019"/>
<feBlend mode="normal" in="SourceGraphic" in2="effect1_backgroundBlur_7116_11019" result="shape"/>
</filter>
<filter id="filter1_dddddd_7116_11019" x="182.418" y="50.8633" width="466.664" height="448.016" filterUnits="userSpaceOnUse" color-interpolation-filters="sRGB">
<feFlood flood-opacity="0" result="BackgroundImageFix"/>
<feColorMatrix in="SourceAlpha" type="matrix" values="0 0 0 0 0 0 0 0 0 0 0 0 0 0 0 0 0 0 127 0" result="hardAlpha"/>
<feOffset/>
<feGaussianBlur stdDeviation="1.68727"/>
<feColorMatrix type="matrix" values="0 0 0 0 0.266667 0 0 0 0 1 0 0 0 0 0.690196 0 0 0 0.05 0"/>
<feBlend mode="normal" in2="BackgroundImageFix" result="effect1_dropShadow_7116_11019"/>
<feColorMatrix in="SourceAlpha" type="matrix" values="0 0 0 0 0 0 0 0 0 0 0 0 0 0 0 0 0 0 127 0" result="hardAlpha"/>
<feOffset/>
<feGaussianBlur stdDeviation="3.37453"/>
<feColorMatrix type="matrix" values="0 0 0 0 0.266667 0 0 0 0 1 0 0 0 0 0.690196 0 0 0 0.05 0"/>
<feBlend mode="normal" in2="effect1_dropShadow_7116_11019" result="effect2_dropShadow_7116_11019"/>
<feColorMatrix in="SourceAlpha" type="matrix" values="0 0 0 0 0 0 0 0 0 0 0 0 0 0 0 0 0 0 127 0" result="hardAlpha"/>
<feOffset/>
<feGaussianBlur stdDeviation="11.8109"/>
<feColorMatrix type="matrix" values="0 0 0 0 0.266667 0 0 0 0 1 0 0 0 0 0.690196 0 0 0 0.05 0"/>
<feBlend mode="normal" in2="effect2_dropShadow_7116_11019" result="effect3_dropShadow_7116_11019"/>
<feColorMatrix in="SourceAlpha" type="matrix" values="0 0 0 0 0 0 0 0 0 0 0 0 0 0 0 0 0 0 127 0" result="hardAlpha"/>
<feOffset/>
<feGaussianBlur stdDeviation="23.6217"/>
<feColorMatrix type="matrix" values="0 0 0 0 0.266667 0 0 0 0 1 0 0 0 0 0.690196 0 0 0 0.05 0"/>
<feBlend mode="normal" in2="effect3_dropShadow_7116_11019" result="effect4_dropShadow_7116_11019"/>
<feColorMatrix in="SourceAlpha" type="matrix" values="0 0 0 0 0 0 0 0 0 0 0 0 0 0 0 0 0 0 127 0" result="hardAlpha"/>
<feOffset/>
<feGaussianBlur stdDeviation="40.4944"/>
<feColorMatrix type="matrix" values="0 0 0 0 0.266667 0 0 0 0 1 0 0 0 0 0.690196 0 0 0 0.05 0"/>
<feBlend mode="normal" in2="effect4_dropShadow_7116_11019" result="effect5_dropShadow_7116_11019"/>
<feColorMatrix in="SourceAlpha" type="matrix" values="0 0 0 0 0 0 0 0 0 0 0 0 0 0 0 0 0 0 127 0" result="hardAlpha"/>
<feOffset/>
<feGaussianBlur stdDeviation="70.8652"/>
<feColorMatrix type="matrix" values="0 0 0 0 0.266667 0 0 0 0 1 0 0 0 0 0.690196 0 0 0 0.05 0"/>
<feBlend mode="normal" in2="effect5_dropShadow_7116_11019" result="effect6_dropShadow_7116_11019"/>
<feBlend mode="normal" in="SourceGraphic" in2="effect6_dropShadow_7116_11019" result="shape"/>
</filter>
<filter id="filter2_dddddd_7116_11019" x="206.365" y="74.154" width="408.122" height="388.981" filterUnits="userSpaceOnUse" color-interpolation-filters="sRGB">
<feFlood flood-opacity="0" result="BackgroundImageFix"/>
<feColorMatrix in="SourceAlpha" type="matrix" values="0 0 0 0 0 0 0 0 0 0 0 0 0 0 0 0 0 0 127 0" result="hardAlpha"/>
<feOffset/>
<feGaussianBlur stdDeviation="1.33503"/>
<feColorMatrix type="matrix" values="0 0 0 0 0.266667 0 0 0 0 1 0 0 0 0 0.690196 0 0 0 0.05 0"/>
<feBlend mode="normal" in2="BackgroundImageFix" result="effect1_dropShadow_7116_11019"/>
<feColorMatrix in="SourceAlpha" type="matrix" values="0 0 0 0 0 0 0 0 0 0 0 0 0 0 0 0 0 0 127 0" result="hardAlpha"/>
<feOffset/>
<feGaussianBlur stdDeviation="2.67007"/>
<feColorMatrix type="matrix" values="0 0 0 0 0.266667 0 0 0 0 1 0 0 0 0 0.690196 0 0 0 0.05 0"/>
<feBlend mode="normal" in2="effect1_dropShadow_7116_11019" result="effect2_dropShadow_7116_11019"/>
<feColorMatrix in="SourceAlpha" type="matrix" values="0 0 0 0 0 0 0 0 0 0 0 0 0 0 0 0 0 0 127 0" result="hardAlpha"/>
<feOffset/>
<feGaussianBlur stdDeviation="9.34524"/>
<feColorMatrix type="matrix" values="0 0 0 0 0.266667 0 0 0 0 1 0 0 0 0 0.690196 0 0 0 0.05 0"/>
<feBlend mode="normal" in2="effect2_dropShadow_7116_11019" result="effect3_dropShadow_7116_11019"/>
<feColorMatrix in="SourceAlpha" type="matrix" values="0 0 0 0 0 0 0 0 0 0 0 0 0 0 0 0 0 0 127 0" result="hardAlpha"/>
<feOffset/>
<feGaussianBlur stdDeviation="18.6905"/>
<feColorMatrix type="matrix" values="0 0 0 0 0.266667 0 0 0 0 1 0 0 0 0 0.690196 0 0 0 0.05 0"/>
<feBlend mode="normal" in2="effect3_dropShadow_7116_11019" result="effect4_dropShadow_7116_11019"/>
<feColorMatrix in="SourceAlpha" type="matrix" values="0 0 0 0 0 0 0 0 0 0 0 0 0 0 0 0 0 0 127 0" result="hardAlpha"/>
<feOffset/>
<feGaussianBlur stdDeviation="32.0408"/>
<feColorMatrix type="matrix" values="0 0 0 0 0.266667 0 0 0 0 1 0 0 0 0 0.690196 0 0 0 0.05 0"/>
<feBlend mode="normal" in2="effect4_dropShadow_7116_11019" result="effect5_dropShadow_7116_11019"/>
<feColorMatrix in="SourceAlpha" type="matrix" values="0 0 0 0 0 0 0 0 0 0 0 0 0 0 0 0 0 0 127 0" result="hardAlpha"/>
<feOffset/>
<feGaussianBlur stdDeviation="56.0715"/>
<feColorMatrix type="matrix" values="0 0 0 0 0.266667 0 0 0 0 1 0 0 0 0 0.690196 0 0 0 0.05 0"/>
<feBlend mode="normal" in2="effect5_dropShadow_7116_11019" result="effect6_dropShadow_7116_11019"/>
<feBlend mode="normal" in="SourceGraphic" in2="effect6_dropShadow_7116_11019" result="shape"/>
</filter>
<filter id="filter3_dddddd_7116_11019" x="155.825" y="4.94983" width="203.694" height="203.038" filterUnits="userSpaceOnUse" color-interpolation-filters="sRGB">
<feFlood flood-opacity="0" result="BackgroundImageFix"/>
<feColorMatrix in="SourceAlpha" type="matrix" values="0 0 0 0 0 0 0 0 0 0 0 0 0 0 0 0 0 0 127 0" result="hardAlpha"/>
<feOffset/>
<feGaussianBlur stdDeviation="0.762502"/>
<feColorMatrix type="matrix" values="0 0 0 0 1 0 0 0 0 1 0 0 0 0 1 0 0 0 0.15 0"/>
<feBlend mode="normal" in2="BackgroundImageFix" result="effect1_dropShadow_7116_11019"/>
<feColorMatrix in="SourceAlpha" type="matrix" values="0 0 0 0 0 0 0 0 0 0 0 0 0 0 0 0 0 0 127 0" result="hardAlpha"/>
<feOffset/>
<feGaussianBlur stdDeviation="1.525"/>
<feColorMatrix type="matrix" values="0 0 0 0 1 0 0 0 0 1 0 0 0 0 1 0 0 0 0.15 0"/>
<feBlend mode="normal" in2="effect1_dropShadow_7116_11019" result="effect2_dropShadow_7116_11019"/>
<feColorMatrix in="SourceAlpha" type="matrix" values="0 0 0 0 0 0 0 0 0 0 0 0 0 0 0 0 0 0 127 0" result="hardAlpha"/>
<feOffset/>
<feGaussianBlur stdDeviation="5.33751"/>
<feColorMatrix type="matrix" values="0 0 0 0 1 0 0 0 0 1 0 0 0 0 1 0 0 0 0.15 0"/>
<feBlend mode="normal" in2="effect2_dropShadow_7116_11019" result="effect3_dropShadow_7116_11019"/>
<feColorMatrix in="SourceAlpha" type="matrix" values="0 0 0 0 0 0 0 0 0 0 0 0 0 0 0 0 0 0 127 0" result="hardAlpha"/>
<feOffset/>
<feGaussianBlur stdDeviation="10.675"/>
<feColorMatrix type="matrix" values="0 0 0 0 1 0 0 0 0 1 0 0 0 0 1 0 0 0 0.15 0"/>
<feBlend mode="normal" in2="effect3_dropShadow_7116_11019" result="effect4_dropShadow_7116_11019"/>
<feColorMatrix in="SourceAlpha" type="matrix" values="0 0 0 0 0 0 0 0 0 0 0 0 0 0 0 0 0 0 127 0" result="hardAlpha"/>
<feOffset/>
<feGaussianBlur stdDeviation="18.3001"/>
<feColorMatrix type="matrix" values="0 0 0 0 1 0 0 0 0 1 0 0 0 0 1 0 0 0 0.15 0"/>
<feBlend mode="normal" in2="effect4_dropShadow_7116_11019" result="effect5_dropShadow_7116_11019"/>
<feColorMatrix in="SourceAlpha" type="matrix" values="0 0 0 0 0 0 0 0 0 0 0 0 0 0 0 0 0 0 127 0" result="hardAlpha"/>
<feOffset/>
<feGaussianBlur stdDeviation="32.0251"/>
<feColorMatrix type="matrix" values="0 0 0 0 1 0 0 0 0 1 0 0 0 0 1 0 0 0 0.15 0"/>
<feBlend mode="normal" in2="effect5_dropShadow_7116_11019" result="effect6_dropShadow_7116_11019"/>
<feBlend mode="normal" in="SourceGraphic" in2="effect6_dropShadow_7116_11019" result="shape"/>
</filter>
<filter id="filter4_dddddd_7116_11019" x="156.497" y="4.90296" width="194.014" height="190.928" filterUnits="userSpaceOnUse" color-interpolation-filters="sRGB">
<feFlood flood-opacity="0" result="BackgroundImageFix"/>
<feColorMatrix in="SourceAlpha" type="matrix" values="0 0 0 0 0 0 0 0 0 0 0 0 0 0 0 0 0 0 127 0" result="hardAlpha"/>
<feOffset/>
<feGaussianBlur stdDeviation="0.762502"/>
<feColorMatrix type="matrix" values="0 0 0 0 1 0 0 0 0 1 0 0 0 0 1 0 0 0 0.15 0"/>
<feBlend mode="normal" in2="BackgroundImageFix" result="effect1_dropShadow_7116_11019"/>
<feColorMatrix in="SourceAlpha" type="matrix" values="0 0 0 0 0 0 0 0 0 0 0 0 0 0 0 0 0 0 127 0" result="hardAlpha"/>
<feOffset/>
<feGaussianBlur stdDeviation="1.525"/>
<feColorMatrix type="matrix" values="0 0 0 0 1 0 0 0 0 1 0 0 0 0 1 0 0 0 0.15 0"/>
<feBlend mode="normal" in2="effect1_dropShadow_7116_11019" result="effect2_dropShadow_7116_11019"/>
<feColorMatrix in="SourceAlpha" type="matrix" values="0 0 0 0 0 0 0 0 0 0 0 0 0 0 0 0 0 0 127 0" result="hardAlpha"/>
<feOffset/>
<feGaussianBlur stdDeviation="5.33751"/>
<feColorMatrix type="matrix" values="0 0 0 0 1 0 0 0 0 1 0 0 0 0 1 0 0 0 0.15 0"/>
<feBlend mode="normal" in2="effect2_dropShadow_7116_11019" result="effect3_dropShadow_7116_11019"/>
<feColorMatrix in="SourceAlpha" type="matrix" values="0 0 0 0 0 0 0 0 0 0 0 0 0 0 0 0 0 0 127 0" result="hardAlpha"/>
<feOffset/>
<feGaussianBlur stdDeviation="10.675"/>
<feColorMatrix type="matrix" values="0 0 0 0 1 0 0 0 0 1 0 0 0 0 1 0 0 0 0.15 0"/>
<feBlend mode="normal" in2="effect3_dropShadow_7116_11019" result="effect4_dropShadow_7116_11019"/>
<feColorMatrix in="SourceAlpha" type="matrix" values="0 0 0 0 0 0 0 0 0 0 0 0 0 0 0 0 0 0 127 0" result="hardAlpha"/>
<feOffset/>
<feGaussianBlur stdDeviation="18.3001"/>
<feColorMatrix type="matrix" values="0 0 0 0 1 0 0 0 0 1 0 0 0 0 1 0 0 0 0.15 0"/>
<feBlend mode="normal" in2="effect4_dropShadow_7116_11019" result="effect5_dropShadow_7116_11019"/>
<feColorMatrix in="SourceAlpha" type="matrix" values="0 0 0 0 0 0 0 0 0 0 0 0 0 0 0 0 0 0 127 0" result="hardAlpha"/>
<feOffset/>
<feGaussianBlur stdDeviation="32.0251"/>
<feColorMatrix type="matrix" values="0 0 0 0 1 0 0 0 0 1 0 0 0 0 1 0 0 0 0.15 0"/>
<feBlend mode="normal" in2="effect5_dropShadow_7116_11019" result="effect6_dropShadow_7116_11019"/>
<feBlend mode="normal" in="SourceGraphic" in2="effect6_dropShadow_7116_11019" result="shape"/>
</filter>
<filter id="filter5_dddddd_7116_11019" x="182.27" y="166.332" width="396.344" height="329.039" filterUnits="userSpaceOnUse" color-interpolation-filters="sRGB">
<feFlood flood-opacity="0" result="BackgroundImageFix"/>
<feColorMatrix in="SourceAlpha" type="matrix" values="0 0 0 0 0 0 0 0 0 0 0 0 0 0 0 0 0 0 127 0" result="hardAlpha"/>
<feOffset/>
<feGaussianBlur stdDeviation="1.68727"/>
<feColorMatrix type="matrix" values="0 0 0 0 1 0 0 0 0 1 0 0 0 0 1 0 0 0 0.25 0"/>
<feBlend mode="normal" in2="BackgroundImageFix" result="effect1_dropShadow_7116_11019"/>
<feColorMatrix in="SourceAlpha" type="matrix" values="0 0 0 0 0 0 0 0 0 0 0 0 0 0 0 0 0 0 127 0" result="hardAlpha"/>
<feOffset/>
<feGaussianBlur stdDeviation="3.37454"/>
<feColorMatrix type="matrix" values="0 0 0 0 1 0 0 0 0 1 0 0 0 0 1 0 0 0 0.25 0"/>
<feBlend mode="normal" in2="effect1_dropShadow_7116_11019" result="effect2_dropShadow_7116_11019"/>
<feColorMatrix in="SourceAlpha" type="matrix" values="0 0 0 0 0 0 0 0 0 0 0 0 0 0 0 0 0 0 127 0" result="hardAlpha"/>
<feOffset/>
<feGaussianBlur stdDeviation="11.8109"/>
<feColorMatrix type="matrix" values="0 0 0 0 1 0 0 0 0 1 0 0 0 0 1 0 0 0 0.25 0"/>
<feBlend mode="normal" in2="effect2_dropShadow_7116_11019" result="effect3_dropShadow_7116_11019"/>
<feColorMatrix in="SourceAlpha" type="matrix" values="0 0 0 0 0 0 0 0 0 0 0 0 0 0 0 0 0 0 127 0" result="hardAlpha"/>
<feOffset/>
<feGaussianBlur stdDeviation="23.6217"/>
<feColorMatrix type="matrix" values="0 0 0 0 1 0 0 0 0 1 0 0 0 0 1 0 0 0 0.25 0"/>
<feBlend mode="normal" in2="effect3_dropShadow_7116_11019" result="effect4_dropShadow_7116_11019"/>
<feColorMatrix in="SourceAlpha" type="matrix" values="0 0 0 0 0 0 0 0 0 0 0 0 0 0 0 0 0 0 127 0" result="hardAlpha"/>
<feOffset/>
<feGaussianBlur stdDeviation="40.4944"/>
<feColorMatrix type="matrix" values="0 0 0 0 1 0 0 0 0 1 0 0 0 0 1 0 0 0 0.25 0"/>
<feBlend mode="normal" in2="effect4_dropShadow_7116_11019" result="effect5_dropShadow_7116_11019"/>
<feColorMatrix in="SourceAlpha" type="matrix" values="0 0 0 0 0 0 0 0 0 0 0 0 0 0 0 0 0 0 127 0" result="hardAlpha"/>
<feOffset/>
<feGaussianBlur stdDeviation="70.8652"/>
<feColorMatrix type="matrix" values="0 0 0 0 1 0 0 0 0 1 0 0 0 0 1 0 0 0 0.25 0"/>
<feBlend mode="normal" in2="effect5_dropShadow_7116_11019" result="effect6_dropShadow_7116_11019"/>
<feBlend mode="normal" in="SourceGraphic" in2="effect6_dropShadow_7116_11019" result="shape"/>
</filter>
<filter id="filter6_dddddd_7116_11019" x="306.043" y="48.9727" width="340.75" height="391.344" filterUnits="userSpaceOnUse" color-interpolation-filters="sRGB">
<feFlood flood-opacity="0" result="BackgroundImageFix"/>
<feColorMatrix in="SourceAlpha" type="matrix" values="0 0 0 0 0 0 0 0 0 0 0 0 0 0 0 0 0 0 127 0" result="hardAlpha"/>
<feOffset/>
<feGaussianBlur stdDeviation="1.68727"/>
<feColorMatrix type="matrix" values="0 0 0 0 1 0 0 0 0 1 0 0 0 0 1 0 0 0 0.25 0"/>
<feBlend mode="normal" in2="BackgroundImageFix" result="effect1_dropShadow_7116_11019"/>
<feColorMatrix in="SourceAlpha" type="matrix" values="0 0 0 0 0 0 0 0 0 0 0 0 0 0 0 0 0 0 127 0" result="hardAlpha"/>
<feOffset/>
<feGaussianBlur stdDeviation="3.37453"/>
<feColorMatrix type="matrix" values="0 0 0 0 1 0 0 0 0 1 0 0 0 0 1 0 0 0 0.25 0"/>
<feBlend mode="normal" in2="effect1_dropShadow_7116_11019" result="effect2_dropShadow_7116_11019"/>
<feColorMatrix in="SourceAlpha" type="matrix" values="0 0 0 0 0 0 0 0 0 0 0 0 0 0 0 0 0 0 127 0" result="hardAlpha"/>
<feOffset/>
<feGaussianBlur stdDeviation="11.8109"/>
<feColorMatrix type="matrix" values="0 0 0 0 1 0 0 0 0 1 0 0 0 0 1 0 0 0 0.25 0"/>
<feBlend mode="normal" in2="effect2_dropShadow_7116_11019" result="effect3_dropShadow_7116_11019"/>
<feColorMatrix in="SourceAlpha" type="matrix" values="0 0 0 0 0 0 0 0 0 0 0 0 0 0 0 0 0 0 127 0" result="hardAlpha"/>
<feOffset/>
<feGaussianBlur stdDeviation="23.6217"/>
<feColorMatrix type="matrix" values="0 0 0 0 1 0 0 0 0 1 0 0 0 0 1 0 0 0 0.25 0"/>
<feBlend mode="normal" in2="effect3_dropShadow_7116_11019" result="effect4_dropShadow_7116_11019"/>
<feColorMatrix in="SourceAlpha" type="matrix" values="0 0 0 0 0 0 0 0 0 0 0 0 0 0 0 0 0 0 127 0" result="hardAlpha"/>
<feOffset/>
<feGaussianBlur stdDeviation="40.4944"/>
<feColorMatrix type="matrix" values="0 0 0 0 1 0 0 0 0 1 0 0 0 0 1 0 0 0 0.25 0"/>
<feBlend mode="normal" in2="effect4_dropShadow_7116_11019" result="effect5_dropShadow_7116_11019"/>
<feColorMatrix in="SourceAlpha" type="matrix" values="0 0 0 0 0 0 0 0 0 0 0 0 0 0 0 0 0 0 127 0" result="hardAlpha"/>
<feOffset/>
<feGaussianBlur stdDeviation="70.8652"/>
<feColorMatrix type="matrix" values="0 0 0 0 1 0 0 0 0 1 0 0 0 0 1 0 0 0 0.25 0"/>
<feBlend mode="normal" in2="effect5_dropShadow_7116_11019" result="effect6_dropShadow_7116_11019"/>
<feBlend mode="normal" in="SourceGraphic" in2="effect6_dropShadow_7116_11019" result="shape"/>
</filter>
<filter id="filter7_dddddd_7116_11019" x="185.465" y="-69.4961" width="302.094" height="321.437" filterUnits="userSpaceOnUse" color-interpolation-filters="sRGB">
<feFlood flood-opacity="0" result="BackgroundImageFix"/>
<feColorMatrix in="SourceAlpha" type="matrix" values="0 0 0 0 0 0 0 0 0 0 0 0 0 0 0 0 0 0 127 0" result="hardAlpha"/>
<feOffset/>
<feGaussianBlur stdDeviation="1.68727"/>
<feColorMatrix type="matrix" values="0 0 0 0 1 0 0 0 0 1 0 0 0 0 1 0 0 0 0.25 0"/>
<feBlend mode="normal" in2="BackgroundImageFix" result="effect1_dropShadow_7116_11019"/>
<feColorMatrix in="SourceAlpha" type="matrix" values="0 0 0 0 0 0 0 0 0 0 0 0 0 0 0 0 0 0 127 0" result="hardAlpha"/>
<feOffset/>
<feGaussianBlur stdDeviation="3.37453"/>
<feColorMatrix type="matrix" values="0 0 0 0 1 0 0 0 0 1 0 0 0 0 1 0 0 0 0.25 0"/>
<feBlend mode="normal" in2="effect1_dropShadow_7116_11019" result="effect2_dropShadow_7116_11019"/>
<feColorMatrix in="SourceAlpha" type="matrix" values="0 0 0 0 0 0 0 0 0 0 0 0 0 0 0 0 0 0 127 0" result="hardAlpha"/>
<feOffset/>
<feGaussianBlur stdDeviation="11.8109"/>
<feColorMatrix type="matrix" values="0 0 0 0 1 0 0 0 0 1 0 0 0 0 1 0 0 0 0.25 0"/>
<feBlend mode="normal" in2="effect2_dropShadow_7116_11019" result="effect3_dropShadow_7116_11019"/>
<feColorMatrix in="SourceAlpha" type="matrix" values="0 0 0 0 0 0 0 0 0 0 0 0 0 0 0 0 0 0 127 0" result="hardAlpha"/>
<feOffset/>
<feGaussianBlur stdDeviation="23.6217"/>
<feColorMatrix type="matrix" values="0 0 0 0 1 0 0 0 0 1 0 0 0 0 1 0 0 0 0.25 0"/>
<feBlend mode="normal" in2="effect3_dropShadow_7116_11019" result="effect4_dropShadow_7116_11019"/>
<feColorMatrix in="SourceAlpha" type="matrix" values="0 0 0 0 0 0 0 0 0 0 0 0 0 0 0 0 0 0 127 0" result="hardAlpha"/>
<feOffset/>
<feGaussianBlur stdDeviation="40.4944"/>
<feColorMatrix type="matrix" values="0 0 0 0 1 0 0 0 0 1 0 0 0 0 1 0 0 0 0.25 0"/>
<feBlend mode="normal" in2="effect4_dropShadow_7116_11019" result="effect5_dropShadow_7116_11019"/>
<feColorMatrix in="SourceAlpha" type="matrix" values="0 0 0 0 0 0 0 0 0 0 0 0 0 0 0 0 0 0 127 0" result="hardAlpha"/>
<feOffset/>
<feGaussianBlur stdDeviation="70.8652"/>
<feColorMatrix type="matrix" values="0 0 0 0 1 0 0 0 0 1 0 0 0 0 1 0 0 0 0.25 0"/>
<feBlend mode="normal" in2="effect5_dropShadow_7116_11019" result="effect6_dropShadow_7116_11019"/>
<feBlend mode="normal" in="SourceGraphic" in2="effect6_dropShadow_7116_11019" result="shape"/>
</filter>
<filter id="filter8_dddddd_7116_11019" x="115.957" y="22.0039" width="306.203" height="292.852" filterUnits="userSpaceOnUse" color-interpolation-filters="sRGB">
<feFlood flood-opacity="0" result="BackgroundImageFix"/>
<feColorMatrix in="SourceAlpha" type="matrix" values="0 0 0 0 0 0 0 0 0 0 0 0 0 0 0 0 0 0 127 0" result="hardAlpha"/>
<feOffset/>
<feGaussianBlur stdDeviation="1.68727"/>
<feColorMatrix type="matrix" values="0 0 0 0 1 0 0 0 0 1 0 0 0 0 1 0 0 0 0.25 0"/>
<feBlend mode="normal" in2="BackgroundImageFix" result="effect1_dropShadow_7116_11019"/>
<feColorMatrix in="SourceAlpha" type="matrix" values="0 0 0 0 0 0 0 0 0 0 0 0 0 0 0 0 0 0 127 0" result="hardAlpha"/>
<feOffset/>
<feGaussianBlur stdDeviation="3.37454"/>
<feColorMatrix type="matrix" values="0 0 0 0 1 0 0 0 0 1 0 0 0 0 1 0 0 0 0.25 0"/>
<feBlend mode="normal" in2="effect1_dropShadow_7116_11019" result="effect2_dropShadow_7116_11019"/>
<feColorMatrix in="SourceAlpha" type="matrix" values="0 0 0 0 0 0 0 0 0 0 0 0 0 0 0 0 0 0 127 0" result="hardAlpha"/>
<feOffset/>
<feGaussianBlur stdDeviation="11.8109"/>
<feColorMatrix type="matrix" values="0 0 0 0 1 0 0 0 0 1 0 0 0 0 1 0 0 0 0.25 0"/>
<feBlend mode="normal" in2="effect2_dropShadow_7116_11019" result="effect3_dropShadow_7116_11019"/>
<feColorMatrix in="SourceAlpha" type="matrix" values="0 0 0 0 0 0 0 0 0 0 0 0 0 0 0 0 0 0 127 0" result="hardAlpha"/>
<feOffset/>
<feGaussianBlur stdDeviation="23.6217"/>
<feColorMatrix type="matrix" values="0 0 0 0 1 0 0 0 0 1 0 0 0 0 1 0 0 0 0.25 0"/>
<feBlend mode="normal" in2="effect3_dropShadow_7116_11019" result="effect4_dropShadow_7116_11019"/>
<feColorMatrix in="SourceAlpha" type="matrix" values="0 0 0 0 0 0 0 0 0 0 0 0 0 0 0 0 0 0 127 0" result="hardAlpha"/>
<feOffset/>
<feGaussianBlur stdDeviation="40.4944"/>
<feColorMatrix type="matrix" values="0 0 0 0 1 0 0 0 0 1 0 0 0 0 1 0 0 0 0.25 0"/>
<feBlend mode="normal" in2="effect4_dropShadow_7116_11019" result="effect5_dropShadow_7116_11019"/>
<feColorMatrix in="SourceAlpha" type="matrix" values="0 0 0 0 0 0 0 0 0 0 0 0 0 0 0 0 0 0 127 0" result="hardAlpha"/>
<feOffset/>
<feGaussianBlur stdDeviation="70.8652"/>
<feColorMatrix type="matrix" values="0 0 0 0 1 0 0 0 0 1 0 0 0 0 1 0 0 0 0.25 0"/>
<feBlend mode="normal" in2="effect5_dropShadow_7116_11019" result="effect6_dropShadow_7116_11019"/>
<feBlend mode="normal" in="SourceGraphic" in2="effect6_dropShadow_7116_11019" result="shape"/>
</filter>
<filter id="filter9_dddddd_7116_11019" x="66.6524" y="38.0274" width="306.203" height="292.852" filterUnits="userSpaceOnUse" color-interpolation-filters="sRGB">
<feFlood flood-opacity="0" result="BackgroundImageFix"/>
<feColorMatrix in="SourceAlpha" type="matrix" values="0 0 0 0 0 0 0 0 0 0 0 0 0 0 0 0 0 0 127 0" result="hardAlpha"/>
<feOffset/>
<feGaussianBlur stdDeviation="1.68727"/>
<feColorMatrix type="matrix" values="0 0 0 0 1 0 0 0 0 1 0 0 0 0 1 0 0 0 0.25 0"/>
<feBlend mode="normal" in2="BackgroundImageFix" result="effect1_dropShadow_7116_11019"/>
<feColorMatrix in="SourceAlpha" type="matrix" values="0 0 0 0 0 0 0 0 0 0 0 0 0 0 0 0 0 0 127 0" result="hardAlpha"/>
<feOffset/>
<feGaussianBlur stdDeviation="3.37454"/>
<feColorMatrix type="matrix" values="0 0 0 0 1 0 0 0 0 1 0 0 0 0 1 0 0 0 0.25 0"/>
<feBlend mode="normal" in2="effect1_dropShadow_7116_11019" result="effect2_dropShadow_7116_11019"/>
<feColorMatrix in="SourceAlpha" type="matrix" values="0 0 0 0 0 0 0 0 0 0 0 0 0 0 0 0 0 0 127 0" result="hardAlpha"/>
<feOffset/>
<feGaussianBlur stdDeviation="11.8109"/>
<feColorMatrix type="matrix" values="0 0 0 0 1 0 0 0 0 1 0 0 0 0 1 0 0 0 0.25 0"/>
<feBlend mode="normal" in2="effect2_dropShadow_7116_11019" result="effect3_dropShadow_7116_11019"/>
<feColorMatrix in="SourceAlpha" type="matrix" values="0 0 0 0 0 0 0 0 0 0 0 0 0 0 0 0 0 0 127 0" result="hardAlpha"/>
<feOffset/>
<feGaussianBlur stdDeviation="23.6217"/>
<feColorMatrix type="matrix" values="0 0 0 0 1 0 0 0 0 1 0 0 0 0 1 0 0 0 0.25 0"/>
<feBlend mode="normal" in2="effect3_dropShadow_7116_11019" result="effect4_dropShadow_7116_11019"/>
<feColorMatrix in="SourceAlpha" type="matrix" values="0 0 0 0 0 0 0 0 0 0 0 0 0 0 0 0 0 0 127 0" result="hardAlpha"/>
<feOffset/>
<feGaussianBlur stdDeviation="40.4944"/>
<feColorMatrix type="matrix" values="0 0 0 0 1 0 0 0 0 1 0 0 0 0 1 0 0 0 0.25 0"/>
<feBlend mode="normal" in2="effect4_dropShadow_7116_11019" result="effect5_dropShadow_7116_11019"/>
<feColorMatrix in="SourceAlpha" type="matrix" values="0 0 0 0 0 0 0 0 0 0 0 0 0 0 0 0 0 0 127 0" result="hardAlpha"/>
<feOffset/>
<feGaussianBlur stdDeviation="70.8652"/>
<feColorMatrix type="matrix" values="0 0 0 0 1 0 0 0 0 1 0 0 0 0 1 0 0 0 0.25 0"/>
<feBlend mode="normal" in2="effect5_dropShadow_7116_11019" result="effect6_dropShadow_7116_11019"/>
<feBlend mode="normal" in="SourceGraphic" in2="effect6_dropShadow_7116_11019" result="shape"/>
</filter>
<filter id="filter10_dddddd_7116_11019" x="137.566" y="117.926" width="306.203" height="292.852" filterUnits="userSpaceOnUse" color-interpolation-filters="sRGB">
<feFlood flood-opacity="0" result="BackgroundImageFix"/>
<feColorMatrix in="SourceAlpha" type="matrix" values="0 0 0 0 0 0 0 0 0 0 0 0 0 0 0 0 0 0 127 0" result="hardAlpha"/>
<feOffset/>
<feGaussianBlur stdDeviation="1.68727"/>
<feColorMatrix type="matrix" values="0 0 0 0 1 0 0 0 0 1 0 0 0 0 1 0 0 0 0.25 0"/>
<feBlend mode="normal" in2="BackgroundImageFix" result="effect1_dropShadow_7116_11019"/>
<feColorMatrix in="SourceAlpha" type="matrix" values="0 0 0 0 0 0 0 0 0 0 0 0 0 0 0 0 0 0 127 0" result="hardAlpha"/>
<feOffset/>
<feGaussianBlur stdDeviation="3.37454"/>
<feColorMatrix type="matrix" values="0 0 0 0 1 0 0 0 0 1 0 0 0 0 1 0 0 0 0.25 0"/>
<feBlend mode="normal" in2="effect1_dropShadow_7116_11019" result="effect2_dropShadow_7116_11019"/>
<feColorMatrix in="SourceAlpha" type="matrix" values="0 0 0 0 0 0 0 0 0 0 0 0 0 0 0 0 0 0 127 0" result="hardAlpha"/>
<feOffset/>
<feGaussianBlur stdDeviation="11.8109"/>
<feColorMatrix type="matrix" values="0 0 0 0 1 0 0 0 0 1 0 0 0 0 1 0 0 0 0.25 0"/>
<feBlend mode="normal" in2="effect2_dropShadow_7116_11019" result="effect3_dropShadow_7116_11019"/>
<feColorMatrix in="SourceAlpha" type="matrix" values="0 0 0 0 0 0 0 0 0 0 0 0 0 0 0 0 0 0 127 0" result="hardAlpha"/>
<feOffset/>
<feGaussianBlur stdDeviation="23.6217"/>
<feColorMatrix type="matrix" values="0 0 0 0 1 0 0 0 0 1 0 0 0 0 1 0 0 0 0.25 0"/>
<feBlend mode="normal" in2="effect3_dropShadow_7116_11019" result="effect4_dropShadow_7116_11019"/>
<feColorMatrix in="SourceAlpha" type="matrix" values="0 0 0 0 0 0 0 0 0 0 0 0 0 0 0 0 0 0 127 0" result="hardAlpha"/>
<feOffset/>
<feGaussianBlur stdDeviation="40.4944"/>
<feColorMatrix type="matrix" values="0 0 0 0 1 0 0 0 0 1 0 0 0 0 1 0 0 0 0.25 0"/>
<feBlend mode="normal" in2="effect4_dropShadow_7116_11019" result="effect5_dropShadow_7116_11019"/>
<feColorMatrix in="SourceAlpha" type="matrix" values="0 0 0 0 0 0 0 0 0 0 0 0 0 0 0 0 0 0 127 0" result="hardAlpha"/>
<feOffset/>
<feGaussianBlur stdDeviation="70.8652"/>
<feColorMatrix type="matrix" values="0 0 0 0 1 0 0 0 0 1 0 0 0 0 1 0 0 0 0.25 0"/>
<feBlend mode="normal" in2="effect5_dropShadow_7116_11019" result="effect6_dropShadow_7116_11019"/>
<feBlend mode="normal" in="SourceGraphic" in2="effect6_dropShadow_7116_11019" result="shape"/>
</filter>
<filter id="filter11_dddddd_7116_11019" x="185.637" y="101.84" width="306.203" height="292.852" filterUnits="userSpaceOnUse" color-interpolation-filters="sRGB">
<feFlood flood-opacity="0" result="BackgroundImageFix"/>
<feColorMatrix in="SourceAlpha" type="matrix" values="0 0 0 0 0 0 0 0 0 0 0 0 0 0 0 0 0 0 127 0" result="hardAlpha"/>
<feOffset/>
<feGaussianBlur stdDeviation="1.68727"/>
<feColorMatrix type="matrix" values="0 0 0 0 1 0 0 0 0 1 0 0 0 0 1 0 0 0 0.25 0"/>
<feBlend mode="normal" in2="BackgroundImageFix" result="effect1_dropShadow_7116_11019"/>
<feColorMatrix in="SourceAlpha" type="matrix" values="0 0 0 0 0 0 0 0 0 0 0 0 0 0 0 0 0 0 127 0" result="hardAlpha"/>
<feOffset/>
<feGaussianBlur stdDeviation="3.37454"/>
<feColorMatrix type="matrix" values="0 0 0 0 1 0 0 0 0 1 0 0 0 0 1 0 0 0 0.25 0"/>
<feBlend mode="normal" in2="effect1_dropShadow_7116_11019" result="effect2_dropShadow_7116_11019"/>
<feColorMatrix in="SourceAlpha" type="matrix" values="0 0 0 0 0 0 0 0 0 0 0 0 0 0 0 0 0 0 127 0" result="hardAlpha"/>
<feOffset/>
<feGaussianBlur stdDeviation="11.8109"/>
<feColorMatrix type="matrix" values="0 0 0 0 1 0 0 0 0 1 0 0 0 0 1 0 0 0 0.25 0"/>
<feBlend mode="normal" in2="effect2_dropShadow_7116_11019" result="effect3_dropShadow_7116_11019"/>
<feColorMatrix in="SourceAlpha" type="matrix" values="0 0 0 0 0 0 0 0 0 0 0 0 0 0 0 0 0 0 127 0" result="hardAlpha"/>
<feOffset/>
<feGaussianBlur stdDeviation="23.6217"/>
<feColorMatrix type="matrix" values="0 0 0 0 1 0 0 0 0 1 0 0 0 0 1 0 0 0 0.25 0"/>
<feBlend mode="normal" in2="effect3_dropShadow_7116_11019" result="effect4_dropShadow_7116_11019"/>
<feColorMatrix in="SourceAlpha" type="matrix" values="0 0 0 0 0 0 0 0 0 0 0 0 0 0 0 0 0 0 127 0" result="hardAlpha"/>
<feOffset/>
<feGaussianBlur stdDeviation="40.4944"/>
<feColorMatrix type="matrix" values="0 0 0 0 1 0 0 0 0 1 0 0 0 0 1 0 0 0 0.25 0"/>
<feBlend mode="normal" in2="effect4_dropShadow_7116_11019" result="effect5_dropShadow_7116_11019"/>
<feColorMatrix in="SourceAlpha" type="matrix" values="0 0 0 0 0 0 0 0 0 0 0 0 0 0 0 0 0 0 127 0" result="hardAlpha"/>
<feOffset/>
<feGaussianBlur stdDeviation="70.8652"/>
<feColorMatrix type="matrix" values="0 0 0 0 1 0 0 0 0 1 0 0 0 0 1 0 0 0 0.25 0"/>
<feBlend mode="normal" in2="effect5_dropShadow_7116_11019" result="effect6_dropShadow_7116_11019"/>
<feBlend mode="normal" in="SourceGraphic" in2="effect6_dropShadow_7116_11019" result="shape"/>
</filter>
<filter id="filter12_dddddd_7116_11019" x="253.973" y="17.5742" width="302.094" height="321.437" filterUnits="userSpaceOnUse" color-interpolation-filters="sRGB">
<feFlood flood-opacity="0" result="BackgroundImageFix"/>
<feColorMatrix in="SourceAlpha" type="matrix" values="0 0 0 0 0 0 0 0 0 0 0 0 0 0 0 0 0 0 127 0" result="hardAlpha"/>
<feOffset/>
<feGaussianBlur stdDeviation="1.68727"/>
<feColorMatrix type="matrix" values="0 0 0 0 1 0 0 0 0 1 0 0 0 0 1 0 0 0 0.25 0"/>
<feBlend mode="normal" in2="BackgroundImageFix" result="effect1_dropShadow_7116_11019"/>
<feColorMatrix in="SourceAlpha" type="matrix" values="0 0 0 0 0 0 0 0 0 0 0 0 0 0 0 0 0 0 127 0" result="hardAlpha"/>
<feOffset/>
<feGaussianBlur stdDeviation="3.37453"/>
<feColorMatrix type="matrix" values="0 0 0 0 1 0 0 0 0 1 0 0 0 0 1 0 0 0 0.25 0"/>
<feBlend mode="normal" in2="effect1_dropShadow_7116_11019" result="effect2_dropShadow_7116_11019"/>
<feColorMatrix in="SourceAlpha" type="matrix" values="0 0 0 0 0 0 0 0 0 0 0 0 0 0 0 0 0 0 127 0" result="hardAlpha"/>
<feOffset/>
<feGaussianBlur stdDeviation="11.8109"/>
<feColorMatrix type="matrix" values="0 0 0 0 1 0 0 0 0 1 0 0 0 0 1 0 0 0 0.25 0"/>
<feBlend mode="normal" in2="effect2_dropShadow_7116_11019" result="effect3_dropShadow_7116_11019"/>
<feColorMatrix in="SourceAlpha" type="matrix" values="0 0 0 0 0 0 0 0 0 0 0 0 0 0 0 0 0 0 127 0" result="hardAlpha"/>
<feOffset/>
<feGaussianBlur stdDeviation="23.6217"/>
<feColorMatrix type="matrix" values="0 0 0 0 1 0 0 0 0 1 0 0 0 0 1 0 0 0 0.25 0"/>
<feBlend mode="normal" in2="effect3_dropShadow_7116_11019" result="effect4_dropShadow_7116_11019"/>
<feColorMatrix in="SourceAlpha" type="matrix" values="0 0 0 0 0 0 0 0 0 0 0 0 0 0 0 0 0 0 127 0" result="hardAlpha"/>
<feOffset/>
<feGaussianBlur stdDeviation="40.4944"/>
<feColorMatrix type="matrix" values="0 0 0 0 1 0 0 0 0 1 0 0 0 0 1 0 0 0 0.25 0"/>
<feBlend mode="normal" in2="effect4_dropShadow_7116_11019" result="effect5_dropShadow_7116_11019"/>
<feColorMatrix in="SourceAlpha" type="matrix" values="0 0 0 0 0 0 0 0 0 0 0 0 0 0 0 0 0 0 127 0" result="hardAlpha"/>
<feOffset/>
<feGaussianBlur stdDeviation="70.8652"/>
<feColorMatrix type="matrix" values="0 0 0 0 1 0 0 0 0 1 0 0 0 0 1 0 0 0 0.25 0"/>
<feBlend mode="normal" in2="effect5_dropShadow_7116_11019" result="effect6_dropShadow_7116_11019"/>
<feBlend mode="normal" in="SourceGraphic" in2="effect6_dropShadow_7116_11019" result="shape"/>
</filter>
<filter id="filter13_dddddd_7116_11019" x="432.879" y="97.293" width="322.203" height="354.148" filterUnits="userSpaceOnUse" color-interpolation-filters="sRGB">
<feFlood flood-opacity="0" result="BackgroundImageFix"/>
<feColorMatrix in="SourceAlpha" type="matrix" values="0 0 0 0 0 0 0 0 0 0 0 0 0 0 0 0 0 0 127 0" result="hardAlpha"/>
<feOffset/>
<feGaussianBlur stdDeviation="1.68727"/>
<feColorMatrix type="matrix" values="0 0 0 0 1 0 0 0 0 1 0 0 0 0 1 0 0 0 0.25 0"/>
<feBlend mode="normal" in2="BackgroundImageFix" result="effect1_dropShadow_7116_11019"/>
<feColorMatrix in="SourceAlpha" type="matrix" values="0 0 0 0 0 0 0 0 0 0 0 0 0 0 0 0 0 0 127 0" result="hardAlpha"/>
<feOffset/>
<feGaussianBlur stdDeviation="3.37453"/>
<feColorMatrix type="matrix" values="0 0 0 0 1 0 0 0 0 1 0 0 0 0 1 0 0 0 0.25 0"/>
<feBlend mode="normal" in2="effect1_dropShadow_7116_11019" result="effect2_dropShadow_7116_11019"/>
<feColorMatrix in="SourceAlpha" type="matrix" values="0 0 0 0 0 0 0 0 0 0 0 0 0 0 0 0 0 0 127 0" result="hardAlpha"/>
<feOffset/>
<feGaussianBlur stdDeviation="11.8109"/>
<feColorMatrix type="matrix" values="0 0 0 0 1 0 0 0 0 1 0 0 0 0 1 0 0 0 0.25 0"/>
<feBlend mode="normal" in2="effect2_dropShadow_7116_11019" result="effect3_dropShadow_7116_11019"/>
<feColorMatrix in="SourceAlpha" type="matrix" values="0 0 0 0 0 0 0 0 0 0 0 0 0 0 0 0 0 0 127 0" result="hardAlpha"/>
<feOffset/>
<feGaussianBlur stdDeviation="23.6217"/>
<feColorMatrix type="matrix" values="0 0 0 0 1 0 0 0 0 1 0 0 0 0 1 0 0 0 0.25 0"/>
<feBlend mode="normal" in2="effect3_dropShadow_7116_11019" result="effect4_dropShadow_7116_11019"/>
<feColorMatrix in="SourceAlpha" type="matrix" values="0 0 0 0 0 0 0 0 0 0 0 0 0 0 0 0 0 0 127 0" result="hardAlpha"/>
<feOffset/>
<feGaussianBlur stdDeviation="40.4944"/>
<feColorMatrix type="matrix" values="0 0 0 0 1 0 0 0 0 1 0 0 0 0 1 0 0 0 0.25 0"/>
<feBlend mode="normal" in2="effect4_dropShadow_7116_11019" result="effect5_dropShadow_7116_11019"/>
<feColorMatrix in="SourceAlpha" type="matrix" values="0 0 0 0 0 0 0 0 0 0 0 0 0 0 0 0 0 0 127 0" result="hardAlpha"/>
<feOffset/>
<feGaussianBlur stdDeviation="70.8652"/>
<feColorMatrix type="matrix" values="0 0 0 0 1 0 0 0 0 1 0 0 0 0 1 0 0 0 0.25 0"/>
<feBlend mode="normal" in2="effect5_dropShadow_7116_11019" result="effect6_dropShadow_7116_11019"/>
<feBlend mode="normal" in="SourceGraphic" in2="effect6_dropShadow_7116_11019" result="shape"/>
</filter>
<filter id="filter14_dddddd_7116_11019" x="393.941" y="187.949" width="320.375" height="352.836" filterUnits="userSpaceOnUse" color-interpolation-filters="sRGB">
<feFlood flood-opacity="0" result="BackgroundImageFix"/>
<feColorMatrix in="SourceAlpha" type="matrix" values="0 0 0 0 0 0 0 0 0 0 0 0 0 0 0 0 0 0 127 0" result="hardAlpha"/>
<feOffset/>
<feGaussianBlur stdDeviation="1.68727"/>
<feColorMatrix type="matrix" values="0 0 0 0 1 0 0 0 0 1 0 0 0 0 1 0 0 0 0.25 0"/>
<feBlend mode="normal" in2="BackgroundImageFix" result="effect1_dropShadow_7116_11019"/>
<feColorMatrix in="SourceAlpha" type="matrix" values="0 0 0 0 0 0 0 0 0 0 0 0 0 0 0 0 0 0 127 0" result="hardAlpha"/>
<feOffset/>
<feGaussianBlur stdDeviation="3.37453"/>
<feColorMatrix type="matrix" values="0 0 0 0 1 0 0 0 0 1 0 0 0 0 1 0 0 0 0.25 0"/>
<feBlend mode="normal" in2="effect1_dropShadow_7116_11019" result="effect2_dropShadow_7116_11019"/>
<feColorMatrix in="SourceAlpha" type="matrix" values="0 0 0 0 0 0 0 0 0 0 0 0 0 0 0 0 0 0 127 0" result="hardAlpha"/>
<feOffset/>
<feGaussianBlur stdDeviation="11.8109"/>
<feColorMatrix type="matrix" values="0 0 0 0 1 0 0 0 0 1 0 0 0 0 1 0 0 0 0.25 0"/>
<feBlend mode="normal" in2="effect2_dropShadow_7116_11019" result="effect3_dropShadow_7116_11019"/>
<feColorMatrix in="SourceAlpha" type="matrix" values="0 0 0 0 0 0 0 0 0 0 0 0 0 0 0 0 0 0 127 0" result="hardAlpha"/>
<feOffset/>
<feGaussianBlur stdDeviation="23.6217"/>
<feColorMatrix type="matrix" values="0 0 0 0 1 0 0 0 0 1 0 0 0 0 1 0 0 0 0.25 0"/>
<feBlend mode="normal" in2="effect3_dropShadow_7116_11019" result="effect4_dropShadow_7116_11019"/>
<feColorMatrix in="SourceAlpha" type="matrix" values="0 0 0 0 0 0 0 0 0 0 0 0 0 0 0 0 0 0 127 0" result="hardAlpha"/>
<feOffset/>
<feGaussianBlur stdDeviation="40.4944"/>
<feColorMatrix type="matrix" values="0 0 0 0 1 0 0 0 0 1 0 0 0 0 1 0 0 0 0.25 0"/>
<feBlend mode="normal" in2="effect4_dropShadow_7116_11019" result="effect5_dropShadow_7116_11019"/>
<feColorMatrix in="SourceAlpha" type="matrix" values="0 0 0 0 0 0 0 0 0 0 0 0 0 0 0 0 0 0 127 0" result="hardAlpha"/>
<feOffset/>
<feGaussianBlur stdDeviation="70.8652"/>
<feColorMatrix type="matrix" values="0 0 0 0 1 0 0 0 0 1 0 0 0 0 1 0 0 0 0.25 0"/>
<feBlend mode="normal" in2="effect5_dropShadow_7116_11019" result="effect6_dropShadow_7116_11019"/>
<feBlend mode="normal" in="SourceGraphic" in2="effect6_dropShadow_7116_11019" result="shape"/>
</filter>
<filter id="filter15_dddddd_7116_11019" x="317.504" y="262.371" width="355.016" height="311.109" filterUnits="userSpaceOnUse" color-interpolation-filters="sRGB">
<feFlood flood-opacity="0" result="BackgroundImageFix"/>
<feColorMatrix in="SourceAlpha" type="matrix" values="0 0 0 0 0 0 0 0 0 0 0 0 0 0 0 0 0 0 127 0" result="hardAlpha"/>
<feOffset/>
<feGaussianBlur stdDeviation="1.68727"/>
<feColorMatrix type="matrix" values="0 0 0 0 1 0 0 0 0 1 0 0 0 0 1 0 0 0 0.25 0"/>
<feBlend mode="normal" in2="BackgroundImageFix" result="effect1_dropShadow_7116_11019"/>
<feColorMatrix in="SourceAlpha" type="matrix" values="0 0 0 0 0 0 0 0 0 0 0 0 0 0 0 0 0 0 127 0" result="hardAlpha"/>
<feOffset/>
<feGaussianBlur stdDeviation="3.37453"/>
<feColorMatrix type="matrix" values="0 0 0 0 1 0 0 0 0 1 0 0 0 0 1 0 0 0 0.25 0"/>
<feBlend mode="normal" in2="effect1_dropShadow_7116_11019" result="effect2_dropShadow_7116_11019"/>
<feColorMatrix in="SourceAlpha" type="matrix" values="0 0 0 0 0 0 0 0 0 0 0 0 0 0 0 0 0 0 127 0" result="hardAlpha"/>
<feOffset/>
<feGaussianBlur stdDeviation="11.8109"/>
<feColorMatrix type="matrix" values="0 0 0 0 1 0 0 0 0 1 0 0 0 0 1 0 0 0 0.25 0"/>
<feBlend mode="normal" in2="effect2_dropShadow_7116_11019" result="effect3_dropShadow_7116_11019"/>
<feColorMatrix in="SourceAlpha" type="matrix" values="0 0 0 0 0 0 0 0 0 0 0 0 0 0 0 0 0 0 127 0" result="hardAlpha"/>
<feOffset/>
<feGaussianBlur stdDeviation="23.6217"/>
<feColorMatrix type="matrix" values="0 0 0 0 1 0 0 0 0 1 0 0 0 0 1 0 0 0 0.25 0"/>
<feBlend mode="normal" in2="effect3_dropShadow_7116_11019" result="effect4_dropShadow_7116_11019"/>
<feColorMatrix in="SourceAlpha" type="matrix" values="0 0 0 0 0 0 0 0 0 0 0 0 0 0 0 0 0 0 127 0" result="hardAlpha"/>
<feOffset/>
<feGaussianBlur stdDeviation="40.4944"/>
<feColorMatrix type="matrix" values="0 0 0 0 1 0 0 0 0 1 0 0 0 0 1 0 0 0 0.25 0"/>
<feBlend mode="normal" in2="effect4_dropShadow_7116_11019" result="effect5_dropShadow_7116_11019"/>
<feColorMatrix in="SourceAlpha" type="matrix" values="0 0 0 0 0 0 0 0 0 0 0 0 0 0 0 0 0 0 127 0" result="hardAlpha"/>
<feOffset/>
<feGaussianBlur stdDeviation="70.8652"/>
<feColorMatrix type="matrix" values="0 0 0 0 1 0 0 0 0 1 0 0 0 0 1 0 0 0 0.25 0"/>
<feBlend mode="normal" in2="effect5_dropShadow_7116_11019" result="effect6_dropShadow_7116_11019"/>
<feBlend mode="normal" in="SourceGraphic" in2="effect6_dropShadow_7116_11019" result="shape"/>
</filter>
<filter id="filter16_dddddd_7116_11019" x="222.535" y="288.051" width="357" height="315.195" filterUnits="userSpaceOnUse" color-interpolation-filters="sRGB">
<feFlood flood-opacity="0" result="BackgroundImageFix"/>
<feColorMatrix in="SourceAlpha" type="matrix" values="0 0 0 0 0 0 0 0 0 0 0 0 0 0 0 0 0 0 127 0" result="hardAlpha"/>
<feOffset/>
<feGaussianBlur stdDeviation="1.68727"/>
<feColorMatrix type="matrix" values="0 0 0 0 1 0 0 0 0 1 0 0 0 0 1 0 0 0 0.25 0"/>
<feBlend mode="normal" in2="BackgroundImageFix" result="effect1_dropShadow_7116_11019"/>
<feColorMatrix in="SourceAlpha" type="matrix" values="0 0 0 0 0 0 0 0 0 0 0 0 0 0 0 0 0 0 127 0" result="hardAlpha"/>
<feOffset/>
<feGaussianBlur stdDeviation="3.37453"/>
<feColorMatrix type="matrix" values="0 0 0 0 1 0 0 0 0 1 0 0 0 0 1 0 0 0 0.25 0"/>
<feBlend mode="normal" in2="effect1_dropShadow_7116_11019" result="effect2_dropShadow_7116_11019"/>
<feColorMatrix in="SourceAlpha" type="matrix" values="0 0 0 0 0 0 0 0 0 0 0 0 0 0 0 0 0 0 127 0" result="hardAlpha"/>
<feOffset/>
<feGaussianBlur stdDeviation="11.8109"/>
<feColorMatrix type="matrix" values="0 0 0 0 1 0 0 0 0 1 0 0 0 0 1 0 0 0 0.25 0"/>
<feBlend mode="normal" in2="effect2_dropShadow_7116_11019" result="effect3_dropShadow_7116_11019"/>
<feColorMatrix in="SourceAlpha" type="matrix" values="0 0 0 0 0 0 0 0 0 0 0 0 0 0 0 0 0 0 127 0" result="hardAlpha"/>
<feOffset/>
<feGaussianBlur stdDeviation="23.6217"/>
<feColorMatrix type="matrix" values="0 0 0 0 1 0 0 0 0 1 0 0 0 0 1 0 0 0 0.25 0"/>
<feBlend mode="normal" in2="effect3_dropShadow_7116_11019" result="effect4_dropShadow_7116_11019"/>
<feColorMatrix in="SourceAlpha" type="matrix" values="0 0 0 0 0 0 0 0 0 0 0 0 0 0 0 0 0 0 127 0" result="hardAlpha"/>
<feOffset/>
<feGaussianBlur stdDeviation="40.4944"/>
<feColorMatrix type="matrix" values="0 0 0 0 1 0 0 0 0 1 0 0 0 0 1 0 0 0 0.25 0"/>
<feBlend mode="normal" in2="effect4_dropShadow_7116_11019" result="effect5_dropShadow_7116_11019"/>
<feColorMatrix in="SourceAlpha" type="matrix" values="0 0 0 0 0 0 0 0 0 0 0 0 0 0 0 0 0 0 127 0" result="hardAlpha"/>
<feOffset/>
<feGaussianBlur stdDeviation="70.8652"/>
<feColorMatrix type="matrix" values="0 0 0 0 1 0 0 0 0 1 0 0 0 0 1 0 0 0 0.25 0"/>
<feBlend mode="normal" in2="effect5_dropShadow_7116_11019" result="effect6_dropShadow_7116_11019"/>
<feBlend mode="normal" in="SourceGraphic" in2="effect6_dropShadow_7116_11019" result="shape"/>
</filter>
<linearGradient id="paint0_linear_7116_11019" x1="422.634" y1="-5.81715" x2="497.05" y2="312.226" gradientUnits="userSpaceOnUse">
<stop stop-color="#282828"/>
<stop offset="1" stop-color="#121212"/>
</linearGradient>
<linearGradient id="paint1_linear_7116_11019" x1="635.378" y1="261.758" x2="380.977" y2="486.336" gradientUnits="userSpaceOnUse">
<stop/>
<stop offset="0.23" stop-color="#4C4C4C"/>
<stop offset="0.475"/>
<stop offset="0.755" stop-color="#4C4C4C"/>
<stop offset="1"/>
</linearGradient>
<linearGradient id="paint2_linear_7116_11019" x1="751.066" y1="324.429" x2="606.239" y2="296.377" gradientUnits="userSpaceOnUse">
<stop stop-color="white" stop-opacity="0"/>
<stop offset="1" stop-color="white"/>
</linearGradient>
<linearGradient id="paint3_linear_7116_11019" x1="673.613" y1="490.804" x2="528.786" y2="462.752" gradientUnits="userSpaceOnUse">
<stop stop-color="white" stop-opacity="0"/>
<stop offset="1" stop-color="white"/>
</linearGradient>
<linearGradient id="paint4_linear_7116_11019" x1="501.332" y1="548.46" x2="356.505" y2="520.409" gradientUnits="userSpaceOnUse">
<stop stop-color="white" stop-opacity="0"/>
<stop offset="1" stop-color="white"/>
</linearGradient>
<linearGradient id="paint5_linear_7116_11019" x1="496.059" y1="-0.198816" x2="625.498" y2="151.759" gradientUnits="userSpaceOnUse">
<stop stop-color="white" stop-opacity="0"/>
<stop offset="1" stop-color="white"/>
</linearGradient>
<linearGradient id="paint6_linear_7116_11019" x1="317.246" y1="157.598" x2="446.686" y2="309.556" gradientUnits="userSpaceOnUse">
<stop stop-color="white" stop-opacity="0"/>
<stop offset="1" stop-color="white"/>
</linearGradient>
<linearGradient id="paint7_linear_7116_11019" x1="364.285" y1="-27.0401" x2="219.458" y2="-55.0913" gradientUnits="userSpaceOnUse">
<stop stop-color="white"/>
<stop offset="1" stop-color="white" stop-opacity="0"/>
</linearGradient>
<linearGradient id="paint8_linear_7116_11019" x1="185.48" y1="130.757" x2="40.6533" y2="102.706" gradientUnits="userSpaceOnUse">
<stop stop-color="white"/>
<stop offset="1" stop-color="white" stop-opacity="0"/>
</linearGradient>
<linearGradient id="paint9_linear_7116_11019" x1="239.684" y1="12.2899" x2="100.314" y2="-14.7042" gradientUnits="userSpaceOnUse">
<stop stop-color="white"/>
<stop offset="1" stop-color="white" stop-opacity="0"/>
</linearGradient>
<linearGradient id="paint10_linear_7116_11019" x1="345.527" y1="444.288" x2="200.7" y2="416.237" gradientUnits="userSpaceOnUse">
<stop stop-color="white" stop-opacity="0"/>
<stop offset="1" stop-color="#44FFB0"/>
</linearGradient>
<linearGradient id="paint11_linear_7116_11019" x1="800.527" y1="246.288" x2="655.7" y2="218.237" gradientUnits="userSpaceOnUse">
<stop stop-color="white" stop-opacity="0"/>
<stop offset="1" stop-color="#44FFB0"/>
</linearGradient>
<linearGradient id="paint12_linear_7116_11019" x1="800.527" y1="114.288" x2="655.7" y2="86.2369" gradientUnits="userSpaceOnUse">
<stop stop-color="white" stop-opacity="0"/>
<stop offset="1" stop-color="#44FFB0"/>
</linearGradient>
<linearGradient id="paint13_linear_7116_11019" x1="617.527" y1="114.288" x2="472.7" y2="86.2369" gradientUnits="userSpaceOnUse">
<stop stop-color="white" stop-opacity="0"/>
<stop offset="1" stop-color="#44FFB0"/>
</linearGradient>
<linearGradient id="paint14_linear_7116_11019" x1="175.527" y1="306.288" x2="30.7002" y2="278.237" gradientUnits="userSpaceOnUse">
<stop stop-color="white" stop-opacity="0"/>
<stop offset="1" stop-color="#44FFB0"/>
</linearGradient>
<linearGradient id="paint15_linear_7116_11019" x1="175.527" y1="444.288" x2="30.7002" y2="416.237" gradientUnits="userSpaceOnUse">
<stop stop-color="white" stop-opacity="0"/>
<stop offset="1" stop-color="#44FFB0"/>
</linearGradient>
<clipPath id="clip0_7116_11019">
<path d="M0 30C0 13.4315 13.4315 0 30 0H798C814.569 0 828 13.4315 828 30V479C828 495.569 814.569 509 798 509H30C13.4315 509 0 495.569 0 479V30Z" fill="white"/>
</clipPath>
<clipPath id="clip1_7116_11019">
<rect width="511.59" height="825.868" fill="white" transform="matrix(-0.749682 0.661798 0.661798 0.749682 285.227 -203.484)"/>
</clipPath>
<clipPath id="clip2_7116_11019">
<rect width="55.7085" height="62.875" fill="white" transform="matrix(-0.939693 0.34202 -0.241922 0.970296 514.32 283.969)"/>
</clipPath>
</defs>
</svg>
